<mxfile host="app.diagrams.net" modified="2024-02-22T09:12:35.971Z" agent="Mozilla/5.0 (Windows NT 10.0; Win64; x64) AppleWebKit/537.36 (KHTML, like Gecko) Chrome/121.0.0.0 Safari/537.36 OPR/107.0.0.0" etag="WhjLrpNpF48yfrAbUpHu" version="23.1.5" type="github">
  <diagram id="C5RBs43oDa-KdzZeNtuy" name="Page-1">
    <mxGraphModel dx="5427" dy="2497" grid="1" gridSize="10" guides="1" tooltips="1" connect="1" arrows="1" fold="1" page="1" pageScale="1" pageWidth="827" pageHeight="1169" math="0" shadow="0">
      <root>
        <mxCell id="WIyWlLk6GJQsqaUBKTNV-0" />
        <mxCell id="WIyWlLk6GJQsqaUBKTNV-1" parent="WIyWlLk6GJQsqaUBKTNV-0" />
        <mxCell id="z0o2nLO_LAnplbCTnIAR-106" value="" style="rounded=0;whiteSpace=wrap;html=1;" parent="WIyWlLk6GJQsqaUBKTNV-1" vertex="1">
          <mxGeometry x="-740" y="730" width="1445" height="1430" as="geometry" />
        </mxCell>
        <mxCell id="zkfFHV4jXpPFQw0GAbJ--13" value="AC_CollisionComponent" style="swimlane;fontStyle=0;align=center;verticalAlign=top;childLayout=stackLayout;horizontal=1;startSize=26;horizontalStack=0;resizeParent=1;resizeLast=0;collapsible=1;marginBottom=0;rounded=0;shadow=0;strokeWidth=1;fillColor=#1ba1e2;strokeColor=#006EAF;fontColor=#ffffff;" parent="WIyWlLk6GJQsqaUBKTNV-1" vertex="1">
          <mxGeometry x="-420" y="40" width="160" height="104" as="geometry">
            <mxRectangle x="280" y="440" width="170" height="26" as="alternateBounds" />
          </mxGeometry>
        </mxCell>
        <mxCell id="ynBMGLqpD1DIFQQp8FUT-54" value="Variables&#xa;" style="swimlane;fontStyle=2;align=center;verticalAlign=top;childLayout=stackLayout;horizontal=1;startSize=26;horizontalStack=0;resizeParent=1;resizeLast=0;collapsible=1;marginBottom=0;rounded=0;shadow=0;strokeWidth=1;fillColor=#dae8fc;strokeColor=#6c8ebf;gradientColor=#7ea6e0;" parent="zkfFHV4jXpPFQw0GAbJ--13" vertex="1" collapsed="1">
          <mxGeometry y="26" width="160" height="26" as="geometry">
            <mxRectangle y="26" width="160" height="104" as="alternateBounds" />
          </mxGeometry>
        </mxCell>
        <mxCell id="ynBMGLqpD1DIFQQp8FUT-61" value="Private&#xa;&#xa;" style="swimlane;fontStyle=2;align=center;verticalAlign=top;childLayout=stackLayout;horizontal=1;startSize=26;horizontalStack=0;resizeParent=1;resizeLast=0;collapsible=1;marginBottom=0;rounded=0;shadow=0;strokeWidth=1;fillColor=#b0e3e6;strokeColor=#0e8088;" parent="ynBMGLqpD1DIFQQp8FUT-54" vertex="1" collapsed="1">
          <mxGeometry y="26" width="160" height="26" as="geometry">
            <mxRectangle y="26" width="160" height="78" as="alternateBounds" />
          </mxGeometry>
        </mxCell>
        <mxCell id="ynBMGLqpD1DIFQQp8FUT-50" value="HitActor&#xa;" style="text;align=left;verticalAlign=top;spacingLeft=4;spacingRight=4;overflow=hidden;rotatable=0;points=[[0,0.5],[1,0.5]];portConstraint=eastwest;fillColor=#dae8fc;strokeColor=#6c8ebf;" parent="ynBMGLqpD1DIFQQp8FUT-61" vertex="1">
          <mxGeometry y="26" width="160" height="26" as="geometry" />
        </mxCell>
        <mxCell id="ynBMGLqpD1DIFQQp8FUT-51" value="ActorsIgnore&#xa;" style="text;align=left;verticalAlign=top;spacingLeft=4;spacingRight=4;overflow=hidden;rotatable=0;points=[[0,0.5],[1,0.5]];portConstraint=eastwest;fillColor=#dae8fc;strokeColor=#6c8ebf;" parent="ynBMGLqpD1DIFQQp8FUT-61" vertex="1">
          <mxGeometry y="52" width="160" height="26" as="geometry" />
        </mxCell>
        <mxCell id="ynBMGLqpD1DIFQQp8FUT-63" value="Initalization (Public)&#xa;" style="swimlane;fontStyle=2;align=center;verticalAlign=top;childLayout=stackLayout;horizontal=1;startSize=26;horizontalStack=0;resizeParent=1;resizeLast=0;collapsible=1;marginBottom=0;rounded=0;shadow=0;strokeWidth=1;fillColor=#b0e3e6;strokeColor=#0e8088;" parent="ynBMGLqpD1DIFQQp8FUT-54" vertex="1" collapsed="1">
          <mxGeometry y="52" width="160" height="26" as="geometry">
            <mxRectangle y="52" width="160" height="78" as="alternateBounds" />
          </mxGeometry>
        </mxCell>
        <mxCell id="ynBMGLqpD1DIFQQp8FUT-52" value="Radius&#xa;" style="text;align=left;verticalAlign=top;spacingLeft=4;spacingRight=4;overflow=hidden;rotatable=0;points=[[0,0.5],[1,0.5]];portConstraint=eastwest;fillColor=#dae8fc;strokeColor=#6c8ebf;" parent="ynBMGLqpD1DIFQQp8FUT-63" vertex="1">
          <mxGeometry y="26" width="160" height="26" as="geometry" />
        </mxCell>
        <mxCell id="ynBMGLqpD1DIFQQp8FUT-53" value="Socket&#xa;" style="text;align=left;verticalAlign=top;spacingLeft=4;spacingRight=4;overflow=hidden;rotatable=0;points=[[0,0.5],[1,0.5]];portConstraint=eastwest;fillColor=#dae8fc;strokeColor=#6c8ebf;" parent="ynBMGLqpD1DIFQQp8FUT-63" vertex="1">
          <mxGeometry y="52" width="160" height="26" as="geometry" />
        </mxCell>
        <mxCell id="ynBMGLqpD1DIFQQp8FUT-62" value="Component (Private)" style="swimlane;fontStyle=2;align=center;verticalAlign=top;childLayout=stackLayout;horizontal=1;startSize=26;horizontalStack=0;resizeParent=1;resizeLast=0;collapsible=1;marginBottom=0;rounded=0;shadow=0;strokeWidth=1;fillColor=#b0e3e6;strokeColor=#0e8088;" parent="ynBMGLqpD1DIFQQp8FUT-54" vertex="1" collapsed="1">
          <mxGeometry y="78" width="160" height="26" as="geometry">
            <mxRectangle y="78" width="160" height="52" as="alternateBounds" />
          </mxGeometry>
        </mxCell>
        <mxCell id="ynBMGLqpD1DIFQQp8FUT-66" value="CollisionMesh&#xa;" style="text;align=left;verticalAlign=top;spacingLeft=4;spacingRight=4;overflow=hidden;rotatable=0;points=[[0,0.5],[1,0.5]];portConstraint=eastwest;fillColor=#dae8fc;strokeColor=#6c8ebf;" parent="ynBMGLqpD1DIFQQp8FUT-62" vertex="1">
          <mxGeometry y="26" width="160" height="26" as="geometry" />
        </mxCell>
        <mxCell id="ynBMGLqpD1DIFQQp8FUT-68" value="Functions" style="swimlane;fontStyle=2;align=center;verticalAlign=top;childLayout=stackLayout;horizontal=1;startSize=26;horizontalStack=0;resizeParent=1;resizeLast=0;collapsible=1;marginBottom=0;rounded=0;shadow=0;strokeWidth=1;fillColor=#ffcd28;strokeColor=#d79b00;gradientColor=#ffa500;" parent="zkfFHV4jXpPFQw0GAbJ--13" vertex="1" collapsed="1">
          <mxGeometry y="52" width="160" height="26" as="geometry">
            <mxRectangle y="52" width="160" height="104" as="alternateBounds" />
          </mxGeometry>
        </mxCell>
        <mxCell id="ynBMGLqpD1DIFQQp8FUT-10" value="GetPrivate&#xa;" style="text;align=left;verticalAlign=top;spacingLeft=4;spacingRight=4;overflow=hidden;rotatable=0;points=[[0,0.5],[1,0.5]];portConstraint=eastwest;fillColor=#f5f5f5;strokeColor=#666666;fontColor=#333333;" parent="ynBMGLqpD1DIFQQp8FUT-68" vertex="1">
          <mxGeometry y="26" width="160" height="26" as="geometry" />
        </mxCell>
        <mxCell id="ynBMGLqpD1DIFQQp8FUT-11" value="SetPrivate&#xa;" style="text;align=left;verticalAlign=top;spacingLeft=4;spacingRight=4;overflow=hidden;rotatable=0;points=[[0,0.5],[1,0.5]];portConstraint=eastwest;fillColor=#f5f5f5;strokeColor=#666666;fontColor=#333333;" parent="ynBMGLqpD1DIFQQp8FUT-68" vertex="1">
          <mxGeometry y="52" width="160" height="26" as="geometry" />
        </mxCell>
        <mxCell id="ynBMGLqpD1DIFQQp8FUT-12" value="ClearPrivate&#xa;" style="text;align=left;verticalAlign=top;spacingLeft=4;spacingRight=4;overflow=hidden;rotatable=0;points=[[0,0.5],[1,0.5]];portConstraint=eastwest;fillColor=#f9f7ed;strokeColor=#36393d;" parent="ynBMGLqpD1DIFQQp8FUT-68" vertex="1">
          <mxGeometry y="78" width="160" height="26" as="geometry" />
        </mxCell>
        <mxCell id="ynBMGLqpD1DIFQQp8FUT-77" value="EventGraph&#xa;" style="swimlane;fontStyle=2;align=center;verticalAlign=top;childLayout=stackLayout;horizontal=1;startSize=26;horizontalStack=0;resizeParent=1;resizeLast=0;collapsible=1;marginBottom=0;rounded=0;shadow=0;strokeWidth=1;fillColor=#f8cecc;strokeColor=#b85450;gradientColor=#ea6b66;" parent="zkfFHV4jXpPFQw0GAbJ--13" vertex="1" collapsed="1">
          <mxGeometry y="78" width="160" height="26" as="geometry">
            <mxRectangle y="78" width="160" height="52" as="alternateBounds" />
          </mxGeometry>
        </mxCell>
        <mxCell id="ynBMGLqpD1DIFQQp8FUT-13" value="CollisionTrace&#xa;" style="text;align=left;verticalAlign=top;spacingLeft=4;spacingRight=4;overflow=hidden;rotatable=0;points=[[0,0.5],[1,0.5]];portConstraint=eastwest;fillColor=#ffcccc;strokeColor=#36393d;" parent="ynBMGLqpD1DIFQQp8FUT-77" vertex="1">
          <mxGeometry y="26" width="160" height="26" as="geometry" />
        </mxCell>
        <mxCell id="ynBMGLqpD1DIFQQp8FUT-35" value="AC_StatsComponent" style="swimlane;fontStyle=0;align=center;verticalAlign=top;childLayout=stackLayout;horizontal=1;startSize=26;horizontalStack=0;resizeParent=1;resizeLast=0;collapsible=1;marginBottom=0;rounded=0;shadow=0;strokeWidth=1;fillColor=#1ba1e2;strokeColor=#006EAF;fontColor=#ffffff;" parent="WIyWlLk6GJQsqaUBKTNV-1" vertex="1">
          <mxGeometry x="-590" y="40" width="160" height="104" as="geometry">
            <mxRectangle x="280" y="440" width="170" height="26" as="alternateBounds" />
          </mxGeometry>
        </mxCell>
        <mxCell id="ynBMGLqpD1DIFQQp8FUT-81" value="Variables&#xa;" style="swimlane;fontStyle=2;align=center;verticalAlign=top;childLayout=stackLayout;horizontal=1;startSize=26;horizontalStack=0;resizeParent=1;resizeLast=0;collapsible=1;marginBottom=0;rounded=0;shadow=0;strokeWidth=1;fillColor=#dae8fc;strokeColor=#6c8ebf;gradientColor=#7ea6e0;" parent="ynBMGLqpD1DIFQQp8FUT-35" vertex="1" collapsed="1">
          <mxGeometry y="26" width="160" height="26" as="geometry">
            <mxRectangle y="26" width="160" height="130" as="alternateBounds" />
          </mxGeometry>
        </mxCell>
        <mxCell id="ynBMGLqpD1DIFQQp8FUT-82" value="Private&#xa;&#xa;" style="swimlane;fontStyle=2;align=center;verticalAlign=top;childLayout=stackLayout;horizontal=1;startSize=26;horizontalStack=0;resizeParent=1;resizeLast=0;collapsible=1;marginBottom=0;rounded=0;shadow=0;strokeWidth=1;fillColor=#b0e3e6;strokeColor=#0e8088;" parent="ynBMGLqpD1DIFQQp8FUT-81" vertex="1">
          <mxGeometry y="26" width="160" height="52" as="geometry">
            <mxRectangle y="26" width="160" height="26" as="alternateBounds" />
          </mxGeometry>
        </mxCell>
        <mxCell id="ynBMGLqpD1DIFQQp8FUT-96" value="CurrentStats" style="text;align=left;verticalAlign=top;spacingLeft=4;spacingRight=4;overflow=hidden;rotatable=0;points=[[0,0.5],[1,0.5]];portConstraint=eastwest;fillColor=#dae8fc;strokeColor=#6c8ebf;" parent="ynBMGLqpD1DIFQQp8FUT-82" vertex="1">
          <mxGeometry y="26" width="160" height="26" as="geometry" />
        </mxCell>
        <mxCell id="ynBMGLqpD1DIFQQp8FUT-85" value="Initalization (Public)&#xa;" style="swimlane;fontStyle=2;align=center;verticalAlign=top;childLayout=stackLayout;horizontal=1;startSize=26;horizontalStack=0;resizeParent=1;resizeLast=0;collapsible=1;marginBottom=0;rounded=0;shadow=0;strokeWidth=1;fillColor=#b0e3e6;strokeColor=#0e8088;" parent="ynBMGLqpD1DIFQQp8FUT-81" vertex="1">
          <mxGeometry y="78" width="160" height="52" as="geometry">
            <mxRectangle y="52" width="160" height="26" as="alternateBounds" />
          </mxGeometry>
        </mxCell>
        <mxCell id="ynBMGLqpD1DIFQQp8FUT-97" value="BaseStats&#xa;" style="text;align=left;verticalAlign=top;spacingLeft=4;spacingRight=4;overflow=hidden;rotatable=0;points=[[0,0.5],[1,0.5]];portConstraint=eastwest;fillColor=#dae8fc;strokeColor=#6c8ebf;" parent="ynBMGLqpD1DIFQQp8FUT-85" vertex="1">
          <mxGeometry y="26" width="160" height="26" as="geometry" />
        </mxCell>
        <mxCell id="ynBMGLqpD1DIFQQp8FUT-90" value="Functions" style="swimlane;fontStyle=2;align=center;verticalAlign=top;childLayout=stackLayout;horizontal=1;startSize=26;horizontalStack=0;resizeParent=1;resizeLast=0;collapsible=1;marginBottom=0;rounded=0;shadow=0;strokeWidth=1;fillColor=#ffcd28;strokeColor=#d79b00;gradientColor=#ffa500;" parent="ynBMGLqpD1DIFQQp8FUT-35" vertex="1" collapsed="1">
          <mxGeometry y="52" width="160" height="26" as="geometry">
            <mxRectangle y="156" width="160" height="130" as="alternateBounds" />
          </mxGeometry>
        </mxCell>
        <mxCell id="ynBMGLqpD1DIFQQp8FUT-91" value="GetPrivate&#xa;" style="text;align=left;verticalAlign=top;spacingLeft=4;spacingRight=4;overflow=hidden;rotatable=0;points=[[0,0.5],[1,0.5]];portConstraint=eastwest;fillColor=#f5f5f5;strokeColor=#666666;fontColor=#333333;" parent="ynBMGLqpD1DIFQQp8FUT-90" vertex="1">
          <mxGeometry y="26" width="160" height="26" as="geometry" />
        </mxCell>
        <mxCell id="ynBMGLqpD1DIFQQp8FUT-92" value="SetPrivate&#xa;" style="text;align=left;verticalAlign=top;spacingLeft=4;spacingRight=4;overflow=hidden;rotatable=0;points=[[0,0.5],[1,0.5]];portConstraint=eastwest;fillColor=#f5f5f5;strokeColor=#666666;fontColor=#333333;" parent="ynBMGLqpD1DIFQQp8FUT-90" vertex="1">
          <mxGeometry y="52" width="160" height="26" as="geometry" />
        </mxCell>
        <mxCell id="ynBMGLqpD1DIFQQp8FUT-99" value="Regeneration&#xa;" style="text;align=left;verticalAlign=top;spacingLeft=4;spacingRight=4;overflow=hidden;rotatable=0;points=[[0,0.5],[1,0.5]];portConstraint=eastwest;fillColor=#f9f7ed;strokeColor=#36393d;" parent="ynBMGLqpD1DIFQQp8FUT-90" vertex="1">
          <mxGeometry y="78" width="160" height="26" as="geometry" />
        </mxCell>
        <mxCell id="ynBMGLqpD1DIFQQp8FUT-100" value="TakeDmg&#xa;" style="text;align=left;verticalAlign=top;spacingLeft=4;spacingRight=4;overflow=hidden;rotatable=0;points=[[0,0.5],[1,0.5]];portConstraint=eastwest;fillColor=#f9f7ed;strokeColor=#36393d;" parent="ynBMGLqpD1DIFQQp8FUT-90" vertex="1">
          <mxGeometry y="104" width="160" height="26" as="geometry" />
        </mxCell>
        <mxCell id="ynBMGLqpD1DIFQQp8FUT-94" value="EventGraph&#xa;" style="swimlane;fontStyle=2;align=center;verticalAlign=top;childLayout=stackLayout;horizontal=1;startSize=26;horizontalStack=0;resizeParent=1;resizeLast=0;collapsible=1;marginBottom=0;rounded=0;shadow=0;strokeWidth=1;fillColor=#f8cecc;strokeColor=#b85450;gradientColor=#ea6b66;" parent="ynBMGLqpD1DIFQQp8FUT-35" vertex="1" collapsed="1">
          <mxGeometry y="78" width="160" height="26" as="geometry">
            <mxRectangle y="182" width="160" height="52" as="alternateBounds" />
          </mxGeometry>
        </mxCell>
        <mxCell id="ynBMGLqpD1DIFQQp8FUT-45" value="StartRegeneration&#xa;" style="text;align=left;verticalAlign=top;spacingLeft=4;spacingRight=4;overflow=hidden;rotatable=0;points=[[0,0.5],[1,0.5]];portConstraint=eastwest;fillColor=#ffcccc;strokeColor=#36393d;" parent="ynBMGLqpD1DIFQQp8FUT-94" vertex="1">
          <mxGeometry y="26" width="160" height="26" as="geometry" />
        </mxCell>
        <mxCell id="ynBMGLqpD1DIFQQp8FUT-102" value="AC_TargetComponent" style="swimlane;fontStyle=0;align=center;verticalAlign=top;childLayout=stackLayout;horizontal=1;startSize=26;horizontalStack=0;resizeParent=1;resizeLast=0;collapsible=1;marginBottom=0;rounded=0;shadow=0;strokeWidth=1;fillColor=#1ba1e2;strokeColor=#006EAF;fontColor=#ffffff;" parent="WIyWlLk6GJQsqaUBKTNV-1" vertex="1">
          <mxGeometry x="-760" y="40" width="160" height="104" as="geometry">
            <mxRectangle x="280" y="440" width="170" height="26" as="alternateBounds" />
          </mxGeometry>
        </mxCell>
        <mxCell id="ynBMGLqpD1DIFQQp8FUT-122" value="Variables&#xa;" style="swimlane;fontStyle=2;align=center;verticalAlign=top;childLayout=stackLayout;horizontal=1;startSize=26;horizontalStack=0;resizeParent=1;resizeLast=0;collapsible=1;marginBottom=0;rounded=0;shadow=0;strokeWidth=1;fillColor=#dae8fc;strokeColor=#6c8ebf;gradientColor=#7ea6e0;" parent="ynBMGLqpD1DIFQQp8FUT-102" vertex="1" collapsed="1">
          <mxGeometry y="26" width="160" height="26" as="geometry">
            <mxRectangle y="26" width="160" height="104" as="alternateBounds" />
          </mxGeometry>
        </mxCell>
        <mxCell id="ynBMGLqpD1DIFQQp8FUT-123" value="Private&#xa;&#xa;" style="swimlane;fontStyle=2;align=center;verticalAlign=top;childLayout=stackLayout;horizontal=1;startSize=26;horizontalStack=0;resizeParent=1;resizeLast=0;collapsible=1;marginBottom=0;rounded=0;shadow=0;strokeWidth=1;fillColor=#b0e3e6;strokeColor=#0e8088;" parent="ynBMGLqpD1DIFQQp8FUT-122" vertex="1" collapsed="1">
          <mxGeometry y="26" width="160" height="26" as="geometry">
            <mxRectangle y="26" width="160" height="78" as="alternateBounds" />
          </mxGeometry>
        </mxCell>
        <mxCell id="ynBMGLqpD1DIFQQp8FUT-124" value="TargetActor" style="text;align=left;verticalAlign=top;spacingLeft=4;spacingRight=4;overflow=hidden;rotatable=0;points=[[0,0.5],[1,0.5]];portConstraint=eastwest;fillColor=#dae8fc;strokeColor=#6c8ebf;" parent="ynBMGLqpD1DIFQQp8FUT-123" vertex="1">
          <mxGeometry y="26" width="160" height="26" as="geometry" />
        </mxCell>
        <mxCell id="ynBMGLqpD1DIFQQp8FUT-125" value="ActorsIgnore&#xa;" style="text;align=left;verticalAlign=top;spacingLeft=4;spacingRight=4;overflow=hidden;rotatable=0;points=[[0,0.5],[1,0.5]];portConstraint=eastwest;fillColor=#dae8fc;strokeColor=#6c8ebf;" parent="ynBMGLqpD1DIFQQp8FUT-123" vertex="1">
          <mxGeometry y="52" width="160" height="26" as="geometry" />
        </mxCell>
        <mxCell id="ynBMGLqpD1DIFQQp8FUT-126" value="Initalization (Public)&#xa;" style="swimlane;fontStyle=2;align=center;verticalAlign=top;childLayout=stackLayout;horizontal=1;startSize=26;horizontalStack=0;resizeParent=1;resizeLast=0;collapsible=1;marginBottom=0;rounded=0;shadow=0;strokeWidth=1;fillColor=#b0e3e6;strokeColor=#0e8088;" parent="ynBMGLqpD1DIFQQp8FUT-122" vertex="1" collapsed="1">
          <mxGeometry y="52" width="160" height="26" as="geometry">
            <mxRectangle y="104" width="160" height="104" as="alternateBounds" />
          </mxGeometry>
        </mxCell>
        <mxCell id="ynBMGLqpD1DIFQQp8FUT-127" value="Radius" style="text;align=left;verticalAlign=top;spacingLeft=4;spacingRight=4;overflow=hidden;rotatable=0;points=[[0,0.5],[1,0.5]];portConstraint=eastwest;fillColor=#dae8fc;strokeColor=#6c8ebf;" parent="ynBMGLqpD1DIFQQp8FUT-126" vertex="1">
          <mxGeometry y="26" width="160" height="26" as="geometry" />
        </mxCell>
        <mxCell id="ynBMGLqpD1DIFQQp8FUT-131" value="TargetType&#xa;&#xa;" style="text;align=left;verticalAlign=top;spacingLeft=4;spacingRight=4;overflow=hidden;rotatable=0;points=[[0,0.5],[1,0.5]];portConstraint=eastwest;fillColor=#dae8fc;strokeColor=#6c8ebf;" parent="ynBMGLqpD1DIFQQp8FUT-126" vertex="1">
          <mxGeometry y="52" width="160" height="26" as="geometry" />
        </mxCell>
        <mxCell id="ynBMGLqpD1DIFQQp8FUT-128" value="Distance&#xa;" style="text;align=left;verticalAlign=top;spacingLeft=4;spacingRight=4;overflow=hidden;rotatable=0;points=[[0,0.5],[1,0.5]];portConstraint=eastwest;fillColor=#dae8fc;strokeColor=#6c8ebf;" parent="ynBMGLqpD1DIFQQp8FUT-126" vertex="1">
          <mxGeometry y="78" width="160" height="26" as="geometry" />
        </mxCell>
        <mxCell id="ynBMGLqpD1DIFQQp8FUT-129" value="Component (Private)" style="swimlane;fontStyle=2;align=center;verticalAlign=top;childLayout=stackLayout;horizontal=1;startSize=26;horizontalStack=0;resizeParent=1;resizeLast=0;collapsible=1;marginBottom=0;rounded=0;shadow=0;strokeWidth=1;fillColor=#b0e3e6;strokeColor=#0e8088;" parent="ynBMGLqpD1DIFQQp8FUT-122" vertex="1" collapsed="1">
          <mxGeometry y="78" width="160" height="26" as="geometry">
            <mxRectangle y="78" width="160" height="104" as="alternateBounds" />
          </mxGeometry>
        </mxCell>
        <mxCell id="ynBMGLqpD1DIFQQp8FUT-130" value="Camera&#xa;" style="text;align=left;verticalAlign=top;spacingLeft=4;spacingRight=4;overflow=hidden;rotatable=0;points=[[0,0.5],[1,0.5]];portConstraint=eastwest;fillColor=#dae8fc;strokeColor=#6c8ebf;" parent="ynBMGLqpD1DIFQQp8FUT-129" vertex="1">
          <mxGeometry y="26" width="160" height="26" as="geometry" />
        </mxCell>
        <mxCell id="ynBMGLqpD1DIFQQp8FUT-133" value="Controller&#xa;" style="text;align=left;verticalAlign=top;spacingLeft=4;spacingRight=4;overflow=hidden;rotatable=0;points=[[0,0.5],[1,0.5]];portConstraint=eastwest;fillColor=#dae8fc;strokeColor=#6c8ebf;" parent="ynBMGLqpD1DIFQQp8FUT-129" vertex="1">
          <mxGeometry y="52" width="160" height="26" as="geometry" />
        </mxCell>
        <mxCell id="ynBMGLqpD1DIFQQp8FUT-132" value="Character" style="text;align=left;verticalAlign=top;spacingLeft=4;spacingRight=4;overflow=hidden;rotatable=0;points=[[0,0.5],[1,0.5]];portConstraint=eastwest;fillColor=#dae8fc;strokeColor=#6c8ebf;" parent="ynBMGLqpD1DIFQQp8FUT-129" vertex="1">
          <mxGeometry y="78" width="160" height="26" as="geometry" />
        </mxCell>
        <mxCell id="ynBMGLqpD1DIFQQp8FUT-108" value="Functions" style="swimlane;fontStyle=2;align=center;verticalAlign=top;childLayout=stackLayout;horizontal=1;startSize=26;horizontalStack=0;resizeParent=1;resizeLast=0;collapsible=1;marginBottom=0;rounded=0;shadow=0;strokeWidth=1;fillColor=#ffcd28;strokeColor=#d79b00;gradientColor=#ffa500;" parent="ynBMGLqpD1DIFQQp8FUT-102" vertex="1" collapsed="1">
          <mxGeometry y="52" width="160" height="26" as="geometry">
            <mxRectangle y="130" width="160" height="104" as="alternateBounds" />
          </mxGeometry>
        </mxCell>
        <mxCell id="ynBMGLqpD1DIFQQp8FUT-109" value="GetPrivate&#xa;" style="text;align=left;verticalAlign=top;spacingLeft=4;spacingRight=4;overflow=hidden;rotatable=0;points=[[0,0.5],[1,0.5]];portConstraint=eastwest;fillColor=#f5f5f5;strokeColor=#666666;fontColor=#333333;" parent="ynBMGLqpD1DIFQQp8FUT-108" vertex="1">
          <mxGeometry y="26" width="160" height="26" as="geometry" />
        </mxCell>
        <mxCell id="ynBMGLqpD1DIFQQp8FUT-110" value="SetPrivate&#xa;" style="text;align=left;verticalAlign=top;spacingLeft=4;spacingRight=4;overflow=hidden;rotatable=0;points=[[0,0.5],[1,0.5]];portConstraint=eastwest;fillColor=#f5f5f5;strokeColor=#666666;fontColor=#333333;" parent="ynBMGLqpD1DIFQQp8FUT-108" vertex="1">
          <mxGeometry y="52" width="160" height="26" as="geometry" />
        </mxCell>
        <mxCell id="ynBMGLqpD1DIFQQp8FUT-134" value="UpdateTarget&#xa;" style="text;align=left;verticalAlign=top;spacingLeft=4;spacingRight=4;overflow=hidden;rotatable=0;points=[[0,0.5],[1,0.5]];portConstraint=eastwest;fillColor=#f5f5f5;strokeColor=#666666;fontColor=#333333;" parent="ynBMGLqpD1DIFQQp8FUT-108" vertex="1">
          <mxGeometry y="78" width="160" height="26" as="geometry" />
        </mxCell>
        <mxCell id="ynBMGLqpD1DIFQQp8FUT-113" value="EventGraph&#xa;" style="swimlane;fontStyle=2;align=center;verticalAlign=top;childLayout=stackLayout;horizontal=1;startSize=26;horizontalStack=0;resizeParent=1;resizeLast=0;collapsible=1;marginBottom=0;rounded=0;shadow=0;strokeWidth=1;fillColor=#f8cecc;strokeColor=#b85450;gradientColor=#ea6b66;" parent="ynBMGLqpD1DIFQQp8FUT-102" vertex="1" collapsed="1">
          <mxGeometry y="78" width="160" height="26" as="geometry">
            <mxRectangle y="156" width="160" height="78" as="alternateBounds" />
          </mxGeometry>
        </mxCell>
        <mxCell id="ynBMGLqpD1DIFQQp8FUT-135" value="LockOn&#xa;" style="text;align=left;verticalAlign=top;spacingLeft=4;spacingRight=4;overflow=hidden;rotatable=0;points=[[0,0.5],[1,0.5]];portConstraint=eastwest;fillColor=#ffcccc;strokeColor=#36393d;" parent="ynBMGLqpD1DIFQQp8FUT-113" vertex="1">
          <mxGeometry y="26" width="160" height="26" as="geometry" />
        </mxCell>
        <mxCell id="ynBMGLqpD1DIFQQp8FUT-136" value="LockOff" style="text;align=left;verticalAlign=top;spacingLeft=4;spacingRight=4;overflow=hidden;rotatable=0;points=[[0,0.5],[1,0.5]];portConstraint=eastwest;fillColor=#ffcccc;strokeColor=#36393d;" parent="ynBMGLqpD1DIFQQp8FUT-113" vertex="1">
          <mxGeometry y="52" width="160" height="26" as="geometry" />
        </mxCell>
        <mxCell id="ynBMGLqpD1DIFQQp8FUT-149" value="AC_StateManagerComponent" style="swimlane;fontStyle=0;align=center;verticalAlign=top;childLayout=stackLayout;horizontal=1;startSize=26;horizontalStack=0;resizeParent=1;resizeLast=0;collapsible=1;marginBottom=0;rounded=0;shadow=0;strokeWidth=1;fillColor=#1ba1e2;strokeColor=#006EAF;fontColor=#ffffff;" parent="WIyWlLk6GJQsqaUBKTNV-1" vertex="1">
          <mxGeometry x="-250" y="40" width="160" height="78" as="geometry">
            <mxRectangle x="280" y="440" width="170" height="26" as="alternateBounds" />
          </mxGeometry>
        </mxCell>
        <mxCell id="ynBMGLqpD1DIFQQp8FUT-150" value="Variables&#xa;" style="swimlane;fontStyle=2;align=center;verticalAlign=top;childLayout=stackLayout;horizontal=1;startSize=26;horizontalStack=0;resizeParent=1;resizeLast=0;collapsible=1;marginBottom=0;rounded=0;shadow=0;strokeWidth=1;fillColor=#dae8fc;strokeColor=#6c8ebf;gradientColor=#7ea6e0;" parent="ynBMGLqpD1DIFQQp8FUT-149" vertex="1" collapsed="1">
          <mxGeometry y="26" width="160" height="26" as="geometry">
            <mxRectangle y="26" width="160" height="52" as="alternateBounds" />
          </mxGeometry>
        </mxCell>
        <mxCell id="ynBMGLqpD1DIFQQp8FUT-151" value="Private&#xa;&#xa;" style="swimlane;fontStyle=2;align=center;verticalAlign=top;childLayout=stackLayout;horizontal=1;startSize=26;horizontalStack=0;resizeParent=1;resizeLast=0;collapsible=1;marginBottom=0;rounded=0;shadow=0;strokeWidth=1;fillColor=#b0e3e6;strokeColor=#0e8088;" parent="ynBMGLqpD1DIFQQp8FUT-150" vertex="1" collapsed="1">
          <mxGeometry y="26" width="160" height="26" as="geometry">
            <mxRectangle y="26" width="160" height="78" as="alternateBounds" />
          </mxGeometry>
        </mxCell>
        <mxCell id="ynBMGLqpD1DIFQQp8FUT-152" value="CurrentState" style="text;align=left;verticalAlign=top;spacingLeft=4;spacingRight=4;overflow=hidden;rotatable=0;points=[[0,0.5],[1,0.5]];portConstraint=eastwest;fillColor=#dae8fc;strokeColor=#6c8ebf;" parent="ynBMGLqpD1DIFQQp8FUT-151" vertex="1">
          <mxGeometry y="26" width="160" height="26" as="geometry" />
        </mxCell>
        <mxCell id="ynBMGLqpD1DIFQQp8FUT-153" value="CurrentCharacterState" style="text;align=left;verticalAlign=top;spacingLeft=4;spacingRight=4;overflow=hidden;rotatable=0;points=[[0,0.5],[1,0.5]];portConstraint=eastwest;fillColor=#dae8fc;strokeColor=#6c8ebf;" parent="ynBMGLqpD1DIFQQp8FUT-151" vertex="1">
          <mxGeometry y="52" width="160" height="26" as="geometry" />
        </mxCell>
        <mxCell id="ynBMGLqpD1DIFQQp8FUT-162" value="Functions" style="swimlane;fontStyle=2;align=center;verticalAlign=top;childLayout=stackLayout;horizontal=1;startSize=26;horizontalStack=0;resizeParent=1;resizeLast=0;collapsible=1;marginBottom=0;rounded=0;shadow=0;strokeWidth=1;fillColor=#ffcd28;strokeColor=#d79b00;gradientColor=#ffa500;" parent="ynBMGLqpD1DIFQQp8FUT-149" vertex="1" collapsed="1">
          <mxGeometry y="52" width="160" height="26" as="geometry">
            <mxRectangle y="78" width="160" height="78" as="alternateBounds" />
          </mxGeometry>
        </mxCell>
        <mxCell id="ynBMGLqpD1DIFQQp8FUT-163" value="GetPrivate&#xa;" style="text;align=left;verticalAlign=top;spacingLeft=4;spacingRight=4;overflow=hidden;rotatable=0;points=[[0,0.5],[1,0.5]];portConstraint=eastwest;fillColor=#f5f5f5;strokeColor=#666666;fontColor=#333333;" parent="ynBMGLqpD1DIFQQp8FUT-162" vertex="1">
          <mxGeometry y="26" width="160" height="26" as="geometry" />
        </mxCell>
        <mxCell id="ynBMGLqpD1DIFQQp8FUT-164" value="SetPrivate&#xa;" style="text;align=left;verticalAlign=top;spacingLeft=4;spacingRight=4;overflow=hidden;rotatable=0;points=[[0,0.5],[1,0.5]];portConstraint=eastwest;fillColor=#f5f5f5;strokeColor=#666666;fontColor=#333333;" parent="ynBMGLqpD1DIFQQp8FUT-162" vertex="1">
          <mxGeometry y="52" width="160" height="26" as="geometry" />
        </mxCell>
        <mxCell id="ynBMGLqpD1DIFQQp8FUT-170" value="AC_CombatComponent" style="swimlane;fontStyle=0;align=center;verticalAlign=top;childLayout=stackLayout;horizontal=1;startSize=26;horizontalStack=0;resizeParent=1;resizeLast=0;collapsible=1;marginBottom=0;rounded=0;shadow=0;strokeWidth=1;fillColor=#1ba1e2;strokeColor=#006EAF;fontColor=#ffffff;" parent="WIyWlLk6GJQsqaUBKTNV-1" vertex="1">
          <mxGeometry x="-80" y="40" width="160" height="104" as="geometry">
            <mxRectangle x="280" y="440" width="170" height="26" as="alternateBounds" />
          </mxGeometry>
        </mxCell>
        <mxCell id="ynBMGLqpD1DIFQQp8FUT-171" value="Variables&#xa;" style="swimlane;fontStyle=2;align=center;verticalAlign=top;childLayout=stackLayout;horizontal=1;startSize=26;horizontalStack=0;resizeParent=1;resizeLast=0;collapsible=1;marginBottom=0;rounded=0;shadow=0;strokeWidth=1;fillColor=#dae8fc;strokeColor=#6c8ebf;gradientColor=#7ea6e0;" parent="ynBMGLqpD1DIFQQp8FUT-170" vertex="1" collapsed="1">
          <mxGeometry y="26" width="160" height="26" as="geometry">
            <mxRectangle y="26" width="160" height="52" as="alternateBounds" />
          </mxGeometry>
        </mxCell>
        <mxCell id="ynBMGLqpD1DIFQQp8FUT-172" value="Private&#xa;&#xa;" style="swimlane;fontStyle=2;align=center;verticalAlign=top;childLayout=stackLayout;horizontal=1;startSize=26;horizontalStack=0;resizeParent=1;resizeLast=0;collapsible=1;marginBottom=0;rounded=0;shadow=0;strokeWidth=1;fillColor=#b0e3e6;strokeColor=#0e8088;" parent="ynBMGLqpD1DIFQQp8FUT-171" vertex="1" collapsed="1">
          <mxGeometry y="26" width="160" height="26" as="geometry">
            <mxRectangle y="26" width="160" height="104" as="alternateBounds" />
          </mxGeometry>
        </mxCell>
        <mxCell id="ynBMGLqpD1DIFQQp8FUT-184" value="CombatEnable&#xa;" style="text;align=left;verticalAlign=top;spacingLeft=4;spacingRight=4;overflow=hidden;rotatable=0;points=[[0,0.5],[1,0.5]];portConstraint=eastwest;fillColor=#dae8fc;strokeColor=#6c8ebf;" parent="ynBMGLqpD1DIFQQp8FUT-172" vertex="1">
          <mxGeometry y="26" width="160" height="26" as="geometry" />
        </mxCell>
        <mxCell id="ynBMGLqpD1DIFQQp8FUT-183" value="AttackCount&#xa;" style="text;align=left;verticalAlign=top;spacingLeft=4;spacingRight=4;overflow=hidden;rotatable=0;points=[[0,0.5],[1,0.5]];portConstraint=eastwest;fillColor=#dae8fc;strokeColor=#6c8ebf;" parent="ynBMGLqpD1DIFQQp8FUT-172" vertex="1">
          <mxGeometry y="52" width="160" height="26" as="geometry" />
        </mxCell>
        <mxCell id="ynBMGLqpD1DIFQQp8FUT-173" value="Weapon&#xa;" style="text;align=left;verticalAlign=top;spacingLeft=4;spacingRight=4;overflow=hidden;rotatable=0;points=[[0,0.5],[1,0.5]];portConstraint=eastwest;fillColor=#dae8fc;strokeColor=#6c8ebf;" parent="ynBMGLqpD1DIFQQp8FUT-172" vertex="1">
          <mxGeometry y="78" width="160" height="26" as="geometry" />
        </mxCell>
        <mxCell id="ynBMGLqpD1DIFQQp8FUT-176" value="Functions" style="swimlane;fontStyle=2;align=center;verticalAlign=top;childLayout=stackLayout;horizontal=1;startSize=26;horizontalStack=0;resizeParent=1;resizeLast=0;collapsible=1;marginBottom=0;rounded=0;shadow=0;strokeWidth=1;fillColor=#ffcd28;strokeColor=#d79b00;gradientColor=#ffa500;" parent="ynBMGLqpD1DIFQQp8FUT-170" vertex="1" collapsed="1">
          <mxGeometry y="52" width="160" height="26" as="geometry">
            <mxRectangle y="52" width="160" height="104" as="alternateBounds" />
          </mxGeometry>
        </mxCell>
        <mxCell id="ynBMGLqpD1DIFQQp8FUT-177" value="GetPrivate&#xa;" style="text;align=left;verticalAlign=top;spacingLeft=4;spacingRight=4;overflow=hidden;rotatable=0;points=[[0,0.5],[1,0.5]];portConstraint=eastwest;fillColor=#f5f5f5;strokeColor=#666666;fontColor=#333333;" parent="ynBMGLqpD1DIFQQp8FUT-176" vertex="1">
          <mxGeometry y="26" width="160" height="26" as="geometry" />
        </mxCell>
        <mxCell id="ynBMGLqpD1DIFQQp8FUT-178" value="SetPrivate&#xa;" style="text;align=left;verticalAlign=top;spacingLeft=4;spacingRight=4;overflow=hidden;rotatable=0;points=[[0,0.5],[1,0.5]];portConstraint=eastwest;fillColor=#f5f5f5;strokeColor=#666666;fontColor=#333333;" parent="ynBMGLqpD1DIFQQp8FUT-176" vertex="1">
          <mxGeometry y="52" width="160" height="26" as="geometry" />
        </mxCell>
        <mxCell id="ynBMGLqpD1DIFQQp8FUT-179" value="Reset&#xa;" style="text;align=left;verticalAlign=top;spacingLeft=4;spacingRight=4;overflow=hidden;rotatable=0;points=[[0,0.5],[1,0.5]];portConstraint=eastwest;fillColor=#f9f7ed;strokeColor=#36393d;" parent="ynBMGLqpD1DIFQQp8FUT-176" vertex="1">
          <mxGeometry y="78" width="160" height="26" as="geometry" />
        </mxCell>
        <mxCell id="ynBMGLqpD1DIFQQp8FUT-181" value="Event Dispatchers&#xa;&#xa;" style="swimlane;fontStyle=2;align=center;verticalAlign=top;childLayout=stackLayout;horizontal=1;startSize=26;horizontalStack=0;resizeParent=1;resizeLast=0;collapsible=1;marginBottom=0;rounded=0;shadow=0;strokeWidth=1;fillColor=#f8cecc;strokeColor=#b85450;gradientColor=#ea6b66;" parent="ynBMGLqpD1DIFQQp8FUT-170" vertex="1" collapsed="1">
          <mxGeometry y="78" width="160" height="26" as="geometry">
            <mxRectangle y="78" width="160" height="52" as="alternateBounds" />
          </mxGeometry>
        </mxCell>
        <mxCell id="ynBMGLqpD1DIFQQp8FUT-182" value="ToggleCombat&#xa;" style="text;align=left;verticalAlign=top;spacingLeft=4;spacingRight=4;overflow=hidden;rotatable=0;points=[[0,0.5],[1,0.5]];portConstraint=eastwest;fillColor=#ffcccc;strokeColor=#36393d;" parent="ynBMGLqpD1DIFQQp8FUT-181" vertex="1">
          <mxGeometry y="26" width="160" height="26" as="geometry" />
        </mxCell>
        <mxCell id="ynBMGLqpD1DIFQQp8FUT-235" style="edgeStyle=orthogonalEdgeStyle;rounded=0;orthogonalLoop=1;jettySize=auto;html=1;exitX=0.5;exitY=1;exitDx=0;exitDy=0;entryX=0.063;entryY=-0.029;entryDx=0;entryDy=0;entryPerimeter=0;" parent="WIyWlLk6GJQsqaUBKTNV-1" source="ynBMGLqpD1DIFQQp8FUT-113" target="ynBMGLqpD1DIFQQp8FUT-197" edge="1">
          <mxGeometry relative="1" as="geometry">
            <Array as="points">
              <mxPoint x="-680" y="350" />
              <mxPoint x="-410" y="350" />
            </Array>
          </mxGeometry>
        </mxCell>
        <mxCell id="ynBMGLqpD1DIFQQp8FUT-236" style="edgeStyle=orthogonalEdgeStyle;rounded=0;orthogonalLoop=1;jettySize=auto;html=1;exitX=0.5;exitY=1;exitDx=0;exitDy=0;entryX=0.25;entryY=0;entryDx=0;entryDy=0;" parent="WIyWlLk6GJQsqaUBKTNV-1" source="ynBMGLqpD1DIFQQp8FUT-94" target="ynBMGLqpD1DIFQQp8FUT-197" edge="1">
          <mxGeometry relative="1" as="geometry" />
        </mxCell>
        <mxCell id="ynBMGLqpD1DIFQQp8FUT-241" style="edgeStyle=orthogonalEdgeStyle;rounded=0;orthogonalLoop=1;jettySize=auto;html=1;entryX=0.5;entryY=0;entryDx=0;entryDy=0;" parent="WIyWlLk6GJQsqaUBKTNV-1" source="ynBMGLqpD1DIFQQp8FUT-77" target="ynBMGLqpD1DIFQQp8FUT-197" edge="1">
          <mxGeometry relative="1" as="geometry">
            <Array as="points">
              <mxPoint x="-340" y="210" />
              <mxPoint x="-340" y="210" />
            </Array>
          </mxGeometry>
        </mxCell>
        <mxCell id="ynBMGLqpD1DIFQQp8FUT-242" style="edgeStyle=orthogonalEdgeStyle;rounded=0;orthogonalLoop=1;jettySize=auto;html=1;entryX=0.656;entryY=-0.029;entryDx=0;entryDy=0;entryPerimeter=0;" parent="WIyWlLk6GJQsqaUBKTNV-1" edge="1">
          <mxGeometry relative="1" as="geometry">
            <mxPoint x="-204.96000000000004" y="121.02" as="sourcePoint" />
            <mxPoint x="-310" y="390.0039999999999" as="targetPoint" />
            <Array as="points">
              <mxPoint x="-204.96000000000004" y="303.02" />
              <mxPoint x="-309.96000000000004" y="303.02" />
            </Array>
          </mxGeometry>
        </mxCell>
        <mxCell id="ynBMGLqpD1DIFQQp8FUT-243" style="edgeStyle=orthogonalEdgeStyle;rounded=0;orthogonalLoop=1;jettySize=auto;html=1;entryX=1;entryY=0;entryDx=0;entryDy=0;" parent="WIyWlLk6GJQsqaUBKTNV-1" source="ynBMGLqpD1DIFQQp8FUT-181" target="ynBMGLqpD1DIFQQp8FUT-197" edge="1">
          <mxGeometry relative="1" as="geometry">
            <Array as="points">
              <mxPoint y="330" />
              <mxPoint x="-260" y="330" />
            </Array>
          </mxGeometry>
        </mxCell>
        <mxCell id="ijkHFW4rEP1uJRafnP6o-1" value="TargetLockOn" style="rounded=1;whiteSpace=wrap;html=1;fillColor=#f8cecc;strokeColor=#b85450;" parent="WIyWlLk6GJQsqaUBKTNV-1" vertex="1">
          <mxGeometry x="-460" y="810" width="90" height="60" as="geometry" />
        </mxCell>
        <mxCell id="ijkHFW4rEP1uJRafnP6o-12" style="edgeStyle=orthogonalEdgeStyle;rounded=0;orthogonalLoop=1;jettySize=auto;html=1;" parent="WIyWlLk6GJQsqaUBKTNV-1" source="ijkHFW4rEP1uJRafnP6o-2" target="ijkHFW4rEP1uJRafnP6o-1" edge="1">
          <mxGeometry relative="1" as="geometry" />
        </mxCell>
        <mxCell id="ijkHFW4rEP1uJRafnP6o-29" value="Yes" style="edgeLabel;html=1;align=center;verticalAlign=middle;resizable=0;points=[];" parent="ijkHFW4rEP1uJRafnP6o-12" vertex="1" connectable="0">
          <mxGeometry x="-0.15" y="-2" relative="1" as="geometry">
            <mxPoint as="offset" />
          </mxGeometry>
        </mxCell>
        <mxCell id="z0o2nLO_LAnplbCTnIAR-1" style="edgeStyle=orthogonalEdgeStyle;rounded=0;orthogonalLoop=1;jettySize=auto;html=1;exitX=1;exitY=0.5;exitDx=0;exitDy=0;" parent="WIyWlLk6GJQsqaUBKTNV-1" source="ijkHFW4rEP1uJRafnP6o-2" target="z0o2nLO_LAnplbCTnIAR-0" edge="1">
          <mxGeometry relative="1" as="geometry">
            <Array as="points">
              <mxPoint x="-520" y="910" />
            </Array>
          </mxGeometry>
        </mxCell>
        <mxCell id="z0o2nLO_LAnplbCTnIAR-2" value="No&lt;br&gt;" style="edgeLabel;html=1;align=center;verticalAlign=middle;resizable=0;points=[];" parent="z0o2nLO_LAnplbCTnIAR-1" vertex="1" connectable="0">
          <mxGeometry x="-0.5106" y="-1" relative="1" as="geometry">
            <mxPoint x="31" y="38" as="offset" />
          </mxGeometry>
        </mxCell>
        <mxCell id="ijkHFW4rEP1uJRafnP6o-2" value="Is Targeting?" style="rhombus;whiteSpace=wrap;html=1;fillColor=#f5f5f5;fontColor=#333333;strokeColor=#666666;" parent="WIyWlLk6GJQsqaUBKTNV-1" vertex="1">
          <mxGeometry x="-600" y="800" width="80" height="80" as="geometry" />
        </mxCell>
        <mxCell id="ijkHFW4rEP1uJRafnP6o-11" style="edgeStyle=orthogonalEdgeStyle;rounded=0;orthogonalLoop=1;jettySize=auto;html=1;entryX=0;entryY=0.5;entryDx=0;entryDy=0;" parent="WIyWlLk6GJQsqaUBKTNV-1" source="ijkHFW4rEP1uJRafnP6o-3" target="ijkHFW4rEP1uJRafnP6o-2" edge="1">
          <mxGeometry relative="1" as="geometry" />
        </mxCell>
        <mxCell id="ijkHFW4rEP1uJRafnP6o-3" value="Input&lt;br&gt;" style="triangle;whiteSpace=wrap;html=1;fillColor=#dae8fc;strokeColor=#6c8ebf;" parent="WIyWlLk6GJQsqaUBKTNV-1" vertex="1">
          <mxGeometry x="-700" y="800" width="60" height="80" as="geometry" />
        </mxCell>
        <mxCell id="ijkHFW4rEP1uJRafnP6o-54" style="edgeStyle=orthogonalEdgeStyle;rounded=0;orthogonalLoop=1;jettySize=auto;html=1;entryX=0;entryY=0.5;entryDx=0;entryDy=0;" parent="WIyWlLk6GJQsqaUBKTNV-1" source="z0o2nLO_LAnplbCTnIAR-143" target="ijkHFW4rEP1uJRafnP6o-50" edge="1">
          <mxGeometry relative="1" as="geometry">
            <mxPoint x="-580" y="1585.0000000000002" as="sourcePoint" />
          </mxGeometry>
        </mxCell>
        <mxCell id="ijkHFW4rEP1uJRafnP6o-53" style="edgeStyle=orthogonalEdgeStyle;rounded=0;orthogonalLoop=1;jettySize=auto;html=1;" parent="WIyWlLk6GJQsqaUBKTNV-1" source="ijkHFW4rEP1uJRafnP6o-48" target="ijkHFW4rEP1uJRafnP6o-49" edge="1">
          <mxGeometry relative="1" as="geometry" />
        </mxCell>
        <mxCell id="ijkHFW4rEP1uJRafnP6o-48" value="Set Target Rotation&lt;br&gt;" style="rounded=1;whiteSpace=wrap;html=1;" parent="WIyWlLk6GJQsqaUBKTNV-1" vertex="1">
          <mxGeometry x="-310" y="1595" width="110" height="60" as="geometry" />
        </mxCell>
        <mxCell id="ijkHFW4rEP1uJRafnP6o-49" value="Set Control Rotation&lt;br&gt;" style="rounded=1;whiteSpace=wrap;html=1;" parent="WIyWlLk6GJQsqaUBKTNV-1" vertex="1">
          <mxGeometry x="-170" y="1595" width="120" height="60" as="geometry" />
        </mxCell>
        <mxCell id="z0o2nLO_LAnplbCTnIAR-66" style="edgeStyle=orthogonalEdgeStyle;rounded=0;orthogonalLoop=1;jettySize=auto;html=1;exitX=1;exitY=0.5;exitDx=0;exitDy=0;" parent="WIyWlLk6GJQsqaUBKTNV-1" source="ijkHFW4rEP1uJRafnP6o-50" target="z0o2nLO_LAnplbCTnIAR-65" edge="1">
          <mxGeometry relative="1" as="geometry">
            <Array as="points">
              <mxPoint x="-370" y="1535" />
            </Array>
          </mxGeometry>
        </mxCell>
        <mxCell id="z0o2nLO_LAnplbCTnIAR-137" value="No" style="edgeLabel;html=1;align=center;verticalAlign=middle;resizable=0;points=[];" parent="z0o2nLO_LAnplbCTnIAR-66" vertex="1" connectable="0">
          <mxGeometry x="0.4843" y="1" relative="1" as="geometry">
            <mxPoint as="offset" />
          </mxGeometry>
        </mxCell>
        <mxCell id="z0o2nLO_LAnplbCTnIAR-70" style="edgeStyle=orthogonalEdgeStyle;rounded=0;orthogonalLoop=1;jettySize=auto;html=1;entryX=0;entryY=0.5;entryDx=0;entryDy=0;exitX=1;exitY=0.5;exitDx=0;exitDy=0;" parent="WIyWlLk6GJQsqaUBKTNV-1" source="ijkHFW4rEP1uJRafnP6o-50" target="ijkHFW4rEP1uJRafnP6o-48" edge="1">
          <mxGeometry relative="1" as="geometry">
            <Array as="points">
              <mxPoint x="-370" y="1625" />
            </Array>
          </mxGeometry>
        </mxCell>
        <mxCell id="z0o2nLO_LAnplbCTnIAR-138" value="Yes" style="edgeLabel;html=1;align=center;verticalAlign=middle;resizable=0;points=[];" parent="z0o2nLO_LAnplbCTnIAR-70" vertex="1" connectable="0">
          <mxGeometry x="0.4327" y="-2" relative="1" as="geometry">
            <mxPoint as="offset" />
          </mxGeometry>
        </mxCell>
        <mxCell id="ijkHFW4rEP1uJRafnP6o-50" value="Can Target?" style="rhombus;whiteSpace=wrap;html=1;fillColor=#f5f5f5;fontColor=#333333;strokeColor=#666666;" parent="WIyWlLk6GJQsqaUBKTNV-1" vertex="1">
          <mxGeometry x="-450" y="1545" width="80" height="80" as="geometry" />
        </mxCell>
        <mxCell id="z0o2nLO_LAnplbCTnIAR-0" value="TargetLockOff&lt;br&gt;" style="rounded=1;whiteSpace=wrap;html=1;fillColor=#d5e8d4;strokeColor=#82b366;" parent="WIyWlLk6GJQsqaUBKTNV-1" vertex="1">
          <mxGeometry x="-460" y="880" width="90" height="60" as="geometry" />
        </mxCell>
        <mxCell id="z0o2nLO_LAnplbCTnIAR-11" style="edgeStyle=orthogonalEdgeStyle;rounded=0;orthogonalLoop=1;jettySize=auto;html=1;" parent="WIyWlLk6GJQsqaUBKTNV-1" source="z0o2nLO_LAnplbCTnIAR-4" target="z0o2nLO_LAnplbCTnIAR-5" edge="1">
          <mxGeometry relative="1" as="geometry" />
        </mxCell>
        <mxCell id="z0o2nLO_LAnplbCTnIAR-4" value="Is Target&lt;br&gt;&amp;nbsp;Restart" style="rounded=1;whiteSpace=wrap;html=1;" parent="WIyWlLk6GJQsqaUBKTNV-1" vertex="1">
          <mxGeometry x="-560" y="1005" width="90" height="60" as="geometry" />
        </mxCell>
        <mxCell id="z0o2nLO_LAnplbCTnIAR-12" value="" style="edgeStyle=orthogonalEdgeStyle;rounded=0;orthogonalLoop=1;jettySize=auto;html=1;" parent="WIyWlLk6GJQsqaUBKTNV-1" source="z0o2nLO_LAnplbCTnIAR-5" target="z0o2nLO_LAnplbCTnIAR-6" edge="1">
          <mxGeometry relative="1" as="geometry" />
        </mxCell>
        <mxCell id="z0o2nLO_LAnplbCTnIAR-5" value="Reset Target Actor&lt;br&gt;" style="rounded=1;whiteSpace=wrap;html=1;" parent="WIyWlLk6GJQsqaUBKTNV-1" vertex="1">
          <mxGeometry x="-450" y="1005" width="90" height="60" as="geometry" />
        </mxCell>
        <mxCell id="z0o2nLO_LAnplbCTnIAR-6" value="UpDate Rotation" style="rounded=1;whiteSpace=wrap;html=1;fillColor=#e1d5e7;strokeColor=#9673a6;" parent="WIyWlLk6GJQsqaUBKTNV-1" vertex="1">
          <mxGeometry x="-341" y="1005" width="90" height="60" as="geometry" />
        </mxCell>
        <mxCell id="z0o2nLO_LAnplbCTnIAR-10" style="edgeStyle=orthogonalEdgeStyle;rounded=0;orthogonalLoop=1;jettySize=auto;html=1;" parent="WIyWlLk6GJQsqaUBKTNV-1" source="z0o2nLO_LAnplbCTnIAR-8" target="z0o2nLO_LAnplbCTnIAR-4" edge="1">
          <mxGeometry relative="1" as="geometry" />
        </mxCell>
        <mxCell id="z0o2nLO_LAnplbCTnIAR-8" value="TargetLockOff&lt;br&gt;" style="rounded=0;whiteSpace=wrap;html=1;fillColor=#f8cecc;strokeColor=#b85450;" parent="WIyWlLk6GJQsqaUBKTNV-1" vertex="1">
          <mxGeometry x="-700" y="1005" width="100" height="60" as="geometry" />
        </mxCell>
        <mxCell id="z0o2nLO_LAnplbCTnIAR-17" style="edgeStyle=orthogonalEdgeStyle;rounded=0;orthogonalLoop=1;jettySize=auto;html=1;" parent="WIyWlLk6GJQsqaUBKTNV-1" source="z0o2nLO_LAnplbCTnIAR-13" target="z0o2nLO_LAnplbCTnIAR-15" edge="1">
          <mxGeometry relative="1" as="geometry" />
        </mxCell>
        <mxCell id="z0o2nLO_LAnplbCTnIAR-13" value="TargetLockOn&lt;br&gt;" style="rounded=0;whiteSpace=wrap;html=1;fillColor=#d5e8d4;strokeColor=#82b366;" parent="WIyWlLk6GJQsqaUBKTNV-1" vertex="1">
          <mxGeometry x="-700" y="1165" width="100" height="60" as="geometry" />
        </mxCell>
        <mxCell id="z0o2nLO_LAnplbCTnIAR-19" style="edgeStyle=orthogonalEdgeStyle;rounded=0;orthogonalLoop=1;jettySize=auto;html=1;entryX=0;entryY=0.5;entryDx=0;entryDy=0;" parent="WIyWlLk6GJQsqaUBKTNV-1" source="z0o2nLO_LAnplbCTnIAR-15" target="z0o2nLO_LAnplbCTnIAR-18" edge="1">
          <mxGeometry relative="1" as="geometry" />
        </mxCell>
        <mxCell id="z0o2nLO_LAnplbCTnIAR-15" value="Find Target" style="rounded=1;whiteSpace=wrap;html=1;fillColor=#fff2cc;strokeColor=#d6b656;" parent="WIyWlLk6GJQsqaUBKTNV-1" vertex="1">
          <mxGeometry x="-580" y="1165" width="110" height="60" as="geometry" />
        </mxCell>
        <mxCell id="z0o2nLO_LAnplbCTnIAR-34" style="edgeStyle=orthogonalEdgeStyle;rounded=0;orthogonalLoop=1;jettySize=auto;html=1;" parent="WIyWlLk6GJQsqaUBKTNV-1" target="z0o2nLO_LAnplbCTnIAR-33" edge="1">
          <mxGeometry relative="1" as="geometry">
            <mxPoint x="-580" y="1365.0344827586207" as="sourcePoint" />
          </mxGeometry>
        </mxCell>
        <mxCell id="z0o2nLO_LAnplbCTnIAR-21" style="edgeStyle=orthogonalEdgeStyle;rounded=0;orthogonalLoop=1;jettySize=auto;html=1;exitX=1;exitY=0.5;exitDx=0;exitDy=0;" parent="WIyWlLk6GJQsqaUBKTNV-1" source="z0o2nLO_LAnplbCTnIAR-18" edge="1">
          <mxGeometry relative="1" as="geometry">
            <mxPoint x="-310" y="1245" as="targetPoint" />
            <mxPoint x="-370" y="1215" as="sourcePoint" />
            <Array as="points">
              <mxPoint x="-370" y="1195" />
              <mxPoint x="-350" y="1195" />
              <mxPoint x="-350" y="1246" />
              <mxPoint x="-310" y="1246" />
            </Array>
          </mxGeometry>
        </mxCell>
        <mxCell id="z0o2nLO_LAnplbCTnIAR-22" style="edgeStyle=orthogonalEdgeStyle;rounded=0;orthogonalLoop=1;jettySize=auto;html=1;" parent="WIyWlLk6GJQsqaUBKTNV-1" source="z0o2nLO_LAnplbCTnIAR-18" edge="1">
          <mxGeometry relative="1" as="geometry">
            <mxPoint x="-310" y="1155" as="targetPoint" />
            <Array as="points">
              <mxPoint x="-350" y="1195" />
              <mxPoint x="-350" y="1155" />
              <mxPoint x="-310" y="1155" />
            </Array>
          </mxGeometry>
        </mxCell>
        <mxCell id="z0o2nLO_LAnplbCTnIAR-18" value="Target Find?&lt;br&gt;" style="rhombus;whiteSpace=wrap;html=1;fillColor=#f5f5f5;fontColor=#333333;strokeColor=#666666;" parent="WIyWlLk6GJQsqaUBKTNV-1" vertex="1">
          <mxGeometry x="-450" y="1155" width="80" height="80" as="geometry" />
        </mxCell>
        <mxCell id="z0o2nLO_LAnplbCTnIAR-26" style="edgeStyle=orthogonalEdgeStyle;rounded=0;orthogonalLoop=1;jettySize=auto;html=1;" parent="WIyWlLk6GJQsqaUBKTNV-1" source="z0o2nLO_LAnplbCTnIAR-23" target="z0o2nLO_LAnplbCTnIAR-24" edge="1">
          <mxGeometry relative="1" as="geometry" />
        </mxCell>
        <mxCell id="z0o2nLO_LAnplbCTnIAR-23" value="Set Target&lt;br&gt;" style="rounded=1;whiteSpace=wrap;html=1;" parent="WIyWlLk6GJQsqaUBKTNV-1" vertex="1">
          <mxGeometry x="-310" y="1125" width="110" height="60" as="geometry" />
        </mxCell>
        <mxCell id="z0o2nLO_LAnplbCTnIAR-27" style="edgeStyle=orthogonalEdgeStyle;rounded=0;orthogonalLoop=1;jettySize=auto;html=1;entryX=0;entryY=0.5;entryDx=0;entryDy=0;" parent="WIyWlLk6GJQsqaUBKTNV-1" source="z0o2nLO_LAnplbCTnIAR-24" target="z0o2nLO_LAnplbCTnIAR-25" edge="1">
          <mxGeometry relative="1" as="geometry" />
        </mxCell>
        <mxCell id="z0o2nLO_LAnplbCTnIAR-24" value="Set is Targeting" style="rounded=1;whiteSpace=wrap;html=1;" parent="WIyWlLk6GJQsqaUBKTNV-1" vertex="1">
          <mxGeometry x="-180" y="1125" width="110" height="60" as="geometry" />
        </mxCell>
        <mxCell id="z0o2nLO_LAnplbCTnIAR-25" value="UpDate Rotation" style="rounded=1;whiteSpace=wrap;html=1;fillColor=#e1d5e7;strokeColor=#9673a6;" parent="WIyWlLk6GJQsqaUBKTNV-1" vertex="1">
          <mxGeometry x="-50" y="1125" width="90" height="60" as="geometry" />
        </mxCell>
        <mxCell id="z0o2nLO_LAnplbCTnIAR-39" style="edgeStyle=orthogonalEdgeStyle;rounded=0;orthogonalLoop=1;jettySize=auto;html=1;entryX=0;entryY=0.5;entryDx=0;entryDy=0;" parent="WIyWlLk6GJQsqaUBKTNV-1" source="z0o2nLO_LAnplbCTnIAR-33" target="z0o2nLO_LAnplbCTnIAR-35" edge="1">
          <mxGeometry relative="1" as="geometry" />
        </mxCell>
        <mxCell id="z0o2nLO_LAnplbCTnIAR-33" value="Trace For object" style="shape=process;whiteSpace=wrap;html=1;backgroundOutline=1;" parent="WIyWlLk6GJQsqaUBKTNV-1" vertex="1">
          <mxGeometry x="-550" y="1335" width="120" height="60" as="geometry" />
        </mxCell>
        <mxCell id="z0o2nLO_LAnplbCTnIAR-40" style="edgeStyle=orthogonalEdgeStyle;rounded=0;orthogonalLoop=1;jettySize=auto;html=1;" parent="WIyWlLk6GJQsqaUBKTNV-1" source="z0o2nLO_LAnplbCTnIAR-35" target="z0o2nLO_LAnplbCTnIAR-36" edge="1">
          <mxGeometry relative="1" as="geometry" />
        </mxCell>
        <mxCell id="z0o2nLO_LAnplbCTnIAR-44" value="Yes&lt;br&gt;" style="edgeLabel;html=1;align=center;verticalAlign=middle;resizable=0;points=[];" parent="z0o2nLO_LAnplbCTnIAR-40" vertex="1" connectable="0">
          <mxGeometry x="-0.1409" y="-2" relative="1" as="geometry">
            <mxPoint as="offset" />
          </mxGeometry>
        </mxCell>
        <mxCell id="z0o2nLO_LAnplbCTnIAR-41" style="edgeStyle=orthogonalEdgeStyle;rounded=0;orthogonalLoop=1;jettySize=auto;html=1;entryX=0;entryY=0.5;entryDx=0;entryDy=0;" parent="WIyWlLk6GJQsqaUBKTNV-1" source="z0o2nLO_LAnplbCTnIAR-35" target="z0o2nLO_LAnplbCTnIAR-37" edge="1">
          <mxGeometry relative="1" as="geometry" />
        </mxCell>
        <mxCell id="z0o2nLO_LAnplbCTnIAR-43" value="No" style="edgeLabel;html=1;align=center;verticalAlign=middle;resizable=0;points=[];" parent="z0o2nLO_LAnplbCTnIAR-41" vertex="1" connectable="0">
          <mxGeometry x="-0.5899" y="2" relative="1" as="geometry">
            <mxPoint x="-2" y="8" as="offset" />
          </mxGeometry>
        </mxCell>
        <mxCell id="z0o2nLO_LAnplbCTnIAR-35" value="Found ?" style="rhombus;whiteSpace=wrap;html=1;fillColor=#f5f5f5;fontColor=#333333;strokeColor=#666666;" parent="WIyWlLk6GJQsqaUBKTNV-1" vertex="1">
          <mxGeometry x="-410" y="1325" width="80" height="80" as="geometry" />
        </mxCell>
        <mxCell id="z0o2nLO_LAnplbCTnIAR-42" value="No" style="edgeStyle=orthogonalEdgeStyle;rounded=0;orthogonalLoop=1;jettySize=auto;html=1;entryX=0;entryY=0.5;entryDx=0;entryDy=0;" parent="WIyWlLk6GJQsqaUBKTNV-1" source="z0o2nLO_LAnplbCTnIAR-36" target="z0o2nLO_LAnplbCTnIAR-38" edge="1">
          <mxGeometry x="-0.3333" relative="1" as="geometry">
            <mxPoint as="offset" />
          </mxGeometry>
        </mxCell>
        <mxCell id="z0o2nLO_LAnplbCTnIAR-45" style="edgeStyle=orthogonalEdgeStyle;rounded=0;orthogonalLoop=1;jettySize=auto;html=1;" parent="WIyWlLk6GJQsqaUBKTNV-1" source="z0o2nLO_LAnplbCTnIAR-36" edge="1">
          <mxGeometry relative="1" as="geometry">
            <mxPoint x="-100" y="1365.0000000000002" as="targetPoint" />
          </mxGeometry>
        </mxCell>
        <mxCell id="z0o2nLO_LAnplbCTnIAR-36" value="Have Interface?" style="rhombus;whiteSpace=wrap;html=1;fillColor=#f5f5f5;fontColor=#333333;strokeColor=#666666;" parent="WIyWlLk6GJQsqaUBKTNV-1" vertex="1">
          <mxGeometry x="-260" y="1325" width="80" height="80" as="geometry" />
        </mxCell>
        <mxCell id="z0o2nLO_LAnplbCTnIAR-37" value="False" style="shape=hexagon;perimeter=hexagonPerimeter2;whiteSpace=wrap;html=1;fixedSize=1;fillColor=#FF9999;strokeColor=#36393d;" parent="WIyWlLk6GJQsqaUBKTNV-1" vertex="1">
          <mxGeometry x="-350" y="1415" width="70" height="60" as="geometry" />
        </mxCell>
        <mxCell id="z0o2nLO_LAnplbCTnIAR-38" value="False" style="shape=hexagon;perimeter=hexagonPerimeter2;whiteSpace=wrap;html=1;fixedSize=1;fillColor=#FF9999;strokeColor=#36393d;" parent="WIyWlLk6GJQsqaUBKTNV-1" vertex="1">
          <mxGeometry x="-200" y="1415" width="70" height="60" as="geometry" />
        </mxCell>
        <mxCell id="z0o2nLO_LAnplbCTnIAR-46" value="RETURN&lt;br&gt;True&lt;br&gt;Target" style="shape=hexagon;perimeter=hexagonPerimeter2;whiteSpace=wrap;html=1;fixedSize=1;fillColor=#99FF33;strokeColor=#36393d;" parent="WIyWlLk6GJQsqaUBKTNV-1" vertex="1">
          <mxGeometry x="-100" y="1335" width="70" height="60" as="geometry" />
        </mxCell>
        <mxCell id="z0o2nLO_LAnplbCTnIAR-47" value="Find Target" style="rounded=0;whiteSpace=wrap;html=1;fillColor=#fff2cc;strokeColor=#d6b656;" parent="WIyWlLk6GJQsqaUBKTNV-1" vertex="1">
          <mxGeometry x="-700" y="1335" width="120" height="60" as="geometry" />
        </mxCell>
        <mxCell id="z0o2nLO_LAnplbCTnIAR-48" value="&amp;nbsp;UpDate Rotation" style="rounded=0;whiteSpace=wrap;html=1;fillColor=#e1d5e7;strokeColor=#9673a6;" parent="WIyWlLk6GJQsqaUBKTNV-1" vertex="1">
          <mxGeometry x="-700" y="1555" width="120" height="60" as="geometry" />
        </mxCell>
        <mxCell id="z0o2nLO_LAnplbCTnIAR-49" style="edgeStyle=orthogonalEdgeStyle;rounded=0;orthogonalLoop=1;jettySize=auto;html=1;" parent="WIyWlLk6GJQsqaUBKTNV-1" target="z0o2nLO_LAnplbCTnIAR-51" edge="1">
          <mxGeometry relative="1" as="geometry">
            <mxPoint x="-580" y="1925.0344827586207" as="sourcePoint" />
          </mxGeometry>
        </mxCell>
        <mxCell id="z0o2nLO_LAnplbCTnIAR-50" style="edgeStyle=orthogonalEdgeStyle;rounded=0;orthogonalLoop=1;jettySize=auto;html=1;entryX=0;entryY=0.5;entryDx=0;entryDy=0;" parent="WIyWlLk6GJQsqaUBKTNV-1" source="z0o2nLO_LAnplbCTnIAR-51" target="z0o2nLO_LAnplbCTnIAR-56" edge="1">
          <mxGeometry relative="1" as="geometry" />
        </mxCell>
        <mxCell id="z0o2nLO_LAnplbCTnIAR-51" value="Trace For object" style="shape=process;whiteSpace=wrap;html=1;backgroundOutline=1;" parent="WIyWlLk6GJQsqaUBKTNV-1" vertex="1">
          <mxGeometry x="-550" y="1895" width="120" height="60" as="geometry" />
        </mxCell>
        <mxCell id="z0o2nLO_LAnplbCTnIAR-54" style="edgeStyle=orthogonalEdgeStyle;rounded=0;orthogonalLoop=1;jettySize=auto;html=1;entryX=0;entryY=0.5;entryDx=0;entryDy=0;" parent="WIyWlLk6GJQsqaUBKTNV-1" source="z0o2nLO_LAnplbCTnIAR-56" target="z0o2nLO_LAnplbCTnIAR-60" edge="1">
          <mxGeometry relative="1" as="geometry" />
        </mxCell>
        <mxCell id="z0o2nLO_LAnplbCTnIAR-55" value="No" style="edgeLabel;html=1;align=center;verticalAlign=middle;resizable=0;points=[];" parent="z0o2nLO_LAnplbCTnIAR-54" vertex="1" connectable="0">
          <mxGeometry x="-0.5899" y="2" relative="1" as="geometry">
            <mxPoint x="-2" y="8" as="offset" />
          </mxGeometry>
        </mxCell>
        <mxCell id="z0o2nLO_LAnplbCTnIAR-76" style="edgeStyle=orthogonalEdgeStyle;rounded=0;orthogonalLoop=1;jettySize=auto;html=1;entryX=0;entryY=0.5;entryDx=0;entryDy=0;" parent="WIyWlLk6GJQsqaUBKTNV-1" source="z0o2nLO_LAnplbCTnIAR-56" target="z0o2nLO_LAnplbCTnIAR-75" edge="1">
          <mxGeometry relative="1" as="geometry" />
        </mxCell>
        <mxCell id="z0o2nLO_LAnplbCTnIAR-56" value="Found ?" style="rhombus;whiteSpace=wrap;html=1;fillColor=#f5f5f5;fontColor=#333333;strokeColor=#666666;" parent="WIyWlLk6GJQsqaUBKTNV-1" vertex="1">
          <mxGeometry x="-400" y="1885" width="80" height="80" as="geometry" />
        </mxCell>
        <mxCell id="z0o2nLO_LAnplbCTnIAR-57" value="No" style="edgeStyle=orthogonalEdgeStyle;rounded=0;orthogonalLoop=1;jettySize=auto;html=1;entryX=0;entryY=0.5;entryDx=0;entryDy=0;" parent="WIyWlLk6GJQsqaUBKTNV-1" source="z0o2nLO_LAnplbCTnIAR-59" target="z0o2nLO_LAnplbCTnIAR-61" edge="1">
          <mxGeometry x="-0.3333" relative="1" as="geometry">
            <mxPoint as="offset" />
          </mxGeometry>
        </mxCell>
        <mxCell id="z0o2nLO_LAnplbCTnIAR-58" style="edgeStyle=orthogonalEdgeStyle;rounded=0;orthogonalLoop=1;jettySize=auto;html=1;" parent="WIyWlLk6GJQsqaUBKTNV-1" source="z0o2nLO_LAnplbCTnIAR-59" edge="1">
          <mxGeometry relative="1" as="geometry">
            <mxPoint x="100" y="1925.0000000000002" as="targetPoint" />
          </mxGeometry>
        </mxCell>
        <mxCell id="z0o2nLO_LAnplbCTnIAR-59" value="Have Interface?" style="rhombus;whiteSpace=wrap;html=1;fillColor=#f5f5f5;fontColor=#333333;strokeColor=#666666;" parent="WIyWlLk6GJQsqaUBKTNV-1" vertex="1">
          <mxGeometry x="-80" y="1885" width="80" height="80" as="geometry" />
        </mxCell>
        <mxCell id="z0o2nLO_LAnplbCTnIAR-60" value="False" style="shape=hexagon;perimeter=hexagonPerimeter2;whiteSpace=wrap;html=1;fixedSize=1;fillColor=#FF9999;strokeColor=#36393d;" parent="WIyWlLk6GJQsqaUBKTNV-1" vertex="1">
          <mxGeometry x="-341" y="1965" width="70" height="60" as="geometry" />
        </mxCell>
        <mxCell id="z0o2nLO_LAnplbCTnIAR-61" value="False" style="shape=hexagon;perimeter=hexagonPerimeter2;whiteSpace=wrap;html=1;fixedSize=1;fillColor=#FF9999;strokeColor=#36393d;" parent="WIyWlLk6GJQsqaUBKTNV-1" vertex="1">
          <mxGeometry y="1975" width="70" height="60" as="geometry" />
        </mxCell>
        <mxCell id="z0o2nLO_LAnplbCTnIAR-63" value="Find Next &lt;br&gt;Target" style="rounded=0;whiteSpace=wrap;html=1;fillColor=#dae8fc;strokeColor=#6c8ebf;" parent="WIyWlLk6GJQsqaUBKTNV-1" vertex="1">
          <mxGeometry x="-700" y="1895" width="120" height="60" as="geometry" />
        </mxCell>
        <mxCell id="z0o2nLO_LAnplbCTnIAR-68" style="edgeStyle=orthogonalEdgeStyle;rounded=0;orthogonalLoop=1;jettySize=auto;html=1;entryX=0;entryY=0.5;entryDx=0;entryDy=0;" parent="WIyWlLk6GJQsqaUBKTNV-1" source="z0o2nLO_LAnplbCTnIAR-65" target="z0o2nLO_LAnplbCTnIAR-67" edge="1">
          <mxGeometry relative="1" as="geometry" />
        </mxCell>
        <mxCell id="z0o2nLO_LAnplbCTnIAR-65" value="TargetLockOff&lt;br&gt;" style="rounded=1;whiteSpace=wrap;html=1;fillColor=#f8cecc;strokeColor=#b85450;" parent="WIyWlLk6GJQsqaUBKTNV-1" vertex="1">
          <mxGeometry x="-310" y="1505" width="110" height="60" as="geometry" />
        </mxCell>
        <mxCell id="z0o2nLO_LAnplbCTnIAR-67" value="Find Next&lt;br style=&quot;border-color: var(--border-color);&quot;&gt;TargetLockOn" style="rounded=1;whiteSpace=wrap;html=1;fillColor=#ffe6cc;strokeColor=#d79b00;" parent="WIyWlLk6GJQsqaUBKTNV-1" vertex="1">
          <mxGeometry x="-170" y="1505" width="110" height="60" as="geometry" />
        </mxCell>
        <mxCell id="z0o2nLO_LAnplbCTnIAR-71" value="No" style="edgeStyle=orthogonalEdgeStyle;rounded=0;orthogonalLoop=1;jettySize=auto;html=1;entryX=0;entryY=0.5;entryDx=0;entryDy=0;" parent="WIyWlLk6GJQsqaUBKTNV-1" source="z0o2nLO_LAnplbCTnIAR-72" target="z0o2nLO_LAnplbCTnIAR-73" edge="1">
          <mxGeometry x="-0.3333" relative="1" as="geometry">
            <mxPoint as="offset" />
          </mxGeometry>
        </mxCell>
        <mxCell id="z0o2nLO_LAnplbCTnIAR-81" style="edgeStyle=orthogonalEdgeStyle;rounded=0;orthogonalLoop=1;jettySize=auto;html=1;" parent="WIyWlLk6GJQsqaUBKTNV-1" source="z0o2nLO_LAnplbCTnIAR-72" target="z0o2nLO_LAnplbCTnIAR-80" edge="1">
          <mxGeometry relative="1" as="geometry" />
        </mxCell>
        <mxCell id="z0o2nLO_LAnplbCTnIAR-72" value="Not Dead ?" style="rhombus;whiteSpace=wrap;html=1;fillColor=#f5f5f5;fontColor=#333333;strokeColor=#666666;" parent="WIyWlLk6GJQsqaUBKTNV-1" vertex="1">
          <mxGeometry x="57" y="1885" width="80" height="80" as="geometry" />
        </mxCell>
        <mxCell id="z0o2nLO_LAnplbCTnIAR-73" value="False" style="shape=hexagon;perimeter=hexagonPerimeter2;whiteSpace=wrap;html=1;fixedSize=1;fillColor=#FF9999;strokeColor=#36393d;" parent="WIyWlLk6GJQsqaUBKTNV-1" vertex="1">
          <mxGeometry x="137" y="1975" width="70" height="60" as="geometry" />
        </mxCell>
        <mxCell id="z0o2nLO_LAnplbCTnIAR-77" style="edgeStyle=orthogonalEdgeStyle;rounded=0;orthogonalLoop=1;jettySize=auto;html=1;entryX=0;entryY=0.5;entryDx=0;entryDy=0;" parent="WIyWlLk6GJQsqaUBKTNV-1" source="z0o2nLO_LAnplbCTnIAR-75" target="z0o2nLO_LAnplbCTnIAR-59" edge="1">
          <mxGeometry relative="1" as="geometry" />
        </mxCell>
        <mxCell id="z0o2nLO_LAnplbCTnIAR-78" style="edgeStyle=orthogonalEdgeStyle;rounded=0;orthogonalLoop=1;jettySize=auto;html=1;" parent="WIyWlLk6GJQsqaUBKTNV-1" source="z0o2nLO_LAnplbCTnIAR-75" edge="1">
          <mxGeometry relative="1" as="geometry">
            <mxPoint x="-200" y="2065" as="targetPoint" />
          </mxGeometry>
        </mxCell>
        <mxCell id="z0o2nLO_LAnplbCTnIAR-79" value="Finish&lt;br&gt;" style="edgeLabel;html=1;align=center;verticalAlign=middle;resizable=0;points=[];" parent="z0o2nLO_LAnplbCTnIAR-78" vertex="1" connectable="0">
          <mxGeometry x="-0.092" y="2" relative="1" as="geometry">
            <mxPoint as="offset" />
          </mxGeometry>
        </mxCell>
        <mxCell id="z0o2nLO_LAnplbCTnIAR-75" value="For Each Found" style="shape=process;whiteSpace=wrap;html=1;backgroundOutline=1;" parent="WIyWlLk6GJQsqaUBKTNV-1" vertex="1">
          <mxGeometry x="-260" y="1895" width="120" height="60" as="geometry" />
        </mxCell>
        <mxCell id="z0o2nLO_LAnplbCTnIAR-87" style="edgeStyle=orthogonalEdgeStyle;rounded=0;orthogonalLoop=1;jettySize=auto;html=1;entryX=0;entryY=0.5;entryDx=0;entryDy=0;" parent="WIyWlLk6GJQsqaUBKTNV-1" source="z0o2nLO_LAnplbCTnIAR-80" target="z0o2nLO_LAnplbCTnIAR-83" edge="1">
          <mxGeometry relative="1" as="geometry" />
        </mxCell>
        <mxCell id="z0o2nLO_LAnplbCTnIAR-80" value="Check Distance from Target" style="rounded=1;whiteSpace=wrap;html=1;" parent="WIyWlLk6GJQsqaUBKTNV-1" vertex="1">
          <mxGeometry x="170" y="1895" width="120" height="60" as="geometry" />
        </mxCell>
        <mxCell id="z0o2nLO_LAnplbCTnIAR-86" style="edgeStyle=orthogonalEdgeStyle;rounded=0;orthogonalLoop=1;jettySize=auto;html=1;" parent="WIyWlLk6GJQsqaUBKTNV-1" source="z0o2nLO_LAnplbCTnIAR-83" edge="1">
          <mxGeometry relative="1" as="geometry">
            <mxPoint x="440" y="1925" as="targetPoint" />
          </mxGeometry>
        </mxCell>
        <mxCell id="z0o2nLO_LAnplbCTnIAR-89" value="Yes" style="edgeLabel;html=1;align=center;verticalAlign=middle;resizable=0;points=[];" parent="z0o2nLO_LAnplbCTnIAR-86" vertex="1" connectable="0">
          <mxGeometry x="-0.2182" y="-2" relative="1" as="geometry">
            <mxPoint as="offset" />
          </mxGeometry>
        </mxCell>
        <mxCell id="z0o2nLO_LAnplbCTnIAR-83" value="Less&lt;br&gt;" style="rhombus;whiteSpace=wrap;html=1;fillColor=#f5f5f5;fontColor=#333333;strokeColor=#666666;" parent="WIyWlLk6GJQsqaUBKTNV-1" vertex="1">
          <mxGeometry x="320" y="1885" width="80" height="80" as="geometry" />
        </mxCell>
        <mxCell id="z0o2nLO_LAnplbCTnIAR-88" value="Set Target L" style="rounded=1;whiteSpace=wrap;html=1;" parent="WIyWlLk6GJQsqaUBKTNV-1" vertex="1">
          <mxGeometry x="440" y="1895" width="120" height="60" as="geometry" />
        </mxCell>
        <mxCell id="z0o2nLO_LAnplbCTnIAR-96" style="edgeStyle=orthogonalEdgeStyle;rounded=0;orthogonalLoop=1;jettySize=auto;html=1;" parent="WIyWlLk6GJQsqaUBKTNV-1" source="z0o2nLO_LAnplbCTnIAR-93" target="z0o2nLO_LAnplbCTnIAR-95" edge="1">
          <mxGeometry relative="1" as="geometry" />
        </mxCell>
        <mxCell id="z0o2nLO_LAnplbCTnIAR-93" value="Set Target as Target L" style="rounded=1;whiteSpace=wrap;html=1;" parent="WIyWlLk6GJQsqaUBKTNV-1" vertex="1">
          <mxGeometry x="-260" y="2065" width="120" height="60" as="geometry" />
        </mxCell>
        <mxCell id="z0o2nLO_LAnplbCTnIAR-95" value="Return&amp;nbsp;&lt;br&gt;True&lt;br&gt;Target" style="shape=hexagon;perimeter=hexagonPerimeter2;whiteSpace=wrap;html=1;fixedSize=1;fillColor=#99FF33;strokeColor=#36393d;" parent="WIyWlLk6GJQsqaUBKTNV-1" vertex="1">
          <mxGeometry x="-85" y="2065" width="70" height="60" as="geometry" />
        </mxCell>
        <mxCell id="z0o2nLO_LAnplbCTnIAR-101" value="" style="edgeStyle=orthogonalEdgeStyle;rounded=0;orthogonalLoop=1;jettySize=auto;html=1;" parent="WIyWlLk6GJQsqaUBKTNV-1" source="z0o2nLO_LAnplbCTnIAR-97" target="z0o2nLO_LAnplbCTnIAR-100" edge="1">
          <mxGeometry relative="1" as="geometry" />
        </mxCell>
        <mxCell id="z0o2nLO_LAnplbCTnIAR-97" value="Input&lt;br&gt;" style="triangle;whiteSpace=wrap;html=1;fillColor=#dae8fc;strokeColor=#6c8ebf;" parent="WIyWlLk6GJQsqaUBKTNV-1" vertex="1">
          <mxGeometry x="-290" y="800" width="60" height="80" as="geometry" />
        </mxCell>
        <mxCell id="z0o2nLO_LAnplbCTnIAR-103" value="" style="edgeStyle=orthogonalEdgeStyle;rounded=0;orthogonalLoop=1;jettySize=auto;html=1;" parent="WIyWlLk6GJQsqaUBKTNV-1" source="z0o2nLO_LAnplbCTnIAR-100" target="z0o2nLO_LAnplbCTnIAR-102" edge="1">
          <mxGeometry relative="1" as="geometry" />
        </mxCell>
        <mxCell id="z0o2nLO_LAnplbCTnIAR-104" value="Yes" style="edgeLabel;html=1;align=center;verticalAlign=middle;resizable=0;points=[];" parent="z0o2nLO_LAnplbCTnIAR-103" vertex="1" connectable="0">
          <mxGeometry x="-0.12" relative="1" as="geometry">
            <mxPoint as="offset" />
          </mxGeometry>
        </mxCell>
        <mxCell id="z0o2nLO_LAnplbCTnIAR-100" value="Is Targeting?" style="rhombus;whiteSpace=wrap;html=1;fillColor=#f5f5f5;fontColor=#333333;strokeColor=#666666;" parent="WIyWlLk6GJQsqaUBKTNV-1" vertex="1">
          <mxGeometry x="-200" y="800" width="80" height="80" as="geometry" />
        </mxCell>
        <mxCell id="z0o2nLO_LAnplbCTnIAR-102" value="Find Next&lt;br style=&quot;border-color: var(--border-color);&quot;&gt;TargetLockOn" style="rounded=1;whiteSpace=wrap;html=1;fillColor=#ffe6cc;strokeColor=#d79b00;" parent="WIyWlLk6GJQsqaUBKTNV-1" vertex="1">
          <mxGeometry x="-80" y="810" width="110" height="60" as="geometry" />
        </mxCell>
        <mxCell id="z0o2nLO_LAnplbCTnIAR-105" value="False" style="shape=hexagon;perimeter=hexagonPerimeter2;whiteSpace=wrap;html=1;fixedSize=1;fillColor=#FF9999;strokeColor=#36393d;" parent="WIyWlLk6GJQsqaUBKTNV-1" vertex="1">
          <mxGeometry x="-310" y="1215" width="70" height="60" as="geometry" />
        </mxCell>
        <mxCell id="z0o2nLO_LAnplbCTnIAR-107" value="Change Target" style="rounded=0;whiteSpace=wrap;html=1;" parent="WIyWlLk6GJQsqaUBKTNV-1" vertex="1">
          <mxGeometry x="-290" y="755" width="150" height="40" as="geometry" />
        </mxCell>
        <mxCell id="z0o2nLO_LAnplbCTnIAR-108" value="Enable LockOn" style="rounded=0;whiteSpace=wrap;html=1;" parent="WIyWlLk6GJQsqaUBKTNV-1" vertex="1">
          <mxGeometry x="-700" y="755" width="150" height="40" as="geometry" />
        </mxCell>
        <mxCell id="z0o2nLO_LAnplbCTnIAR-109" value="Targeting Schemat&lt;br&gt;" style="rounded=1;whiteSpace=wrap;html=1;fillColor=#b1ddf0;strokeColor=#10739e;" parent="WIyWlLk6GJQsqaUBKTNV-1" vertex="1">
          <mxGeometry x="340" y="765" width="300" height="90" as="geometry" />
        </mxCell>
        <mxCell id="z0o2nLO_LAnplbCTnIAR-111" value="AC_TargetComponent" style="swimlane;fontStyle=0;align=center;verticalAlign=top;childLayout=stackLayout;horizontal=1;startSize=26;horizontalStack=0;resizeParent=1;resizeLast=0;collapsible=1;marginBottom=0;rounded=0;shadow=0;strokeWidth=1;fillColor=#1ba1e2;strokeColor=#006EAF;fontColor=#ffffff;" parent="WIyWlLk6GJQsqaUBKTNV-1" vertex="1">
          <mxGeometry x="470" y="875" width="160" height="546" as="geometry">
            <mxRectangle x="280" y="440" width="170" height="26" as="alternateBounds" />
          </mxGeometry>
        </mxCell>
        <mxCell id="z0o2nLO_LAnplbCTnIAR-112" value="Variables&#xa;" style="swimlane;fontStyle=2;align=center;verticalAlign=top;childLayout=stackLayout;horizontal=1;startSize=26;horizontalStack=0;resizeParent=1;resizeLast=0;collapsible=1;marginBottom=0;rounded=0;shadow=0;strokeWidth=1;fillColor=#dae8fc;strokeColor=#6c8ebf;gradientColor=#7ea6e0;" parent="z0o2nLO_LAnplbCTnIAR-111" vertex="1">
          <mxGeometry y="26" width="160" height="338" as="geometry">
            <mxRectangle y="26" width="160" height="26" as="alternateBounds" />
          </mxGeometry>
        </mxCell>
        <mxCell id="z0o2nLO_LAnplbCTnIAR-113" value="Private&#xa;&#xa;" style="swimlane;fontStyle=2;align=center;verticalAlign=top;childLayout=stackLayout;horizontal=1;startSize=26;horizontalStack=0;resizeParent=1;resizeLast=0;collapsible=1;marginBottom=0;rounded=0;shadow=0;strokeWidth=1;fillColor=#b0e3e6;strokeColor=#0e8088;" parent="z0o2nLO_LAnplbCTnIAR-112" vertex="1">
          <mxGeometry y="26" width="160" height="78" as="geometry">
            <mxRectangle y="26" width="160" height="26" as="alternateBounds" />
          </mxGeometry>
        </mxCell>
        <mxCell id="z0o2nLO_LAnplbCTnIAR-114" value="TargetActor" style="text;align=left;verticalAlign=top;spacingLeft=4;spacingRight=4;overflow=hidden;rotatable=0;points=[[0,0.5],[1,0.5]];portConstraint=eastwest;fillColor=#dae8fc;strokeColor=#6c8ebf;" parent="z0o2nLO_LAnplbCTnIAR-113" vertex="1">
          <mxGeometry y="26" width="160" height="26" as="geometry" />
        </mxCell>
        <mxCell id="z0o2nLO_LAnplbCTnIAR-115" value="ActorsIgnore&#xa;" style="text;align=left;verticalAlign=top;spacingLeft=4;spacingRight=4;overflow=hidden;rotatable=0;points=[[0,0.5],[1,0.5]];portConstraint=eastwest;fillColor=#dae8fc;strokeColor=#6c8ebf;" parent="z0o2nLO_LAnplbCTnIAR-113" vertex="1">
          <mxGeometry y="52" width="160" height="26" as="geometry" />
        </mxCell>
        <mxCell id="z0o2nLO_LAnplbCTnIAR-116" value="Initalization (Public)&#xa;" style="swimlane;fontStyle=2;align=center;verticalAlign=top;childLayout=stackLayout;horizontal=1;startSize=26;horizontalStack=0;resizeParent=1;resizeLast=0;collapsible=1;marginBottom=0;rounded=0;shadow=0;strokeWidth=1;fillColor=#b0e3e6;strokeColor=#0e8088;" parent="z0o2nLO_LAnplbCTnIAR-112" vertex="1">
          <mxGeometry y="104" width="160" height="130" as="geometry">
            <mxRectangle y="104" width="160" height="26" as="alternateBounds" />
          </mxGeometry>
        </mxCell>
        <mxCell id="z0o2nLO_LAnplbCTnIAR-117" value="Radius" style="text;align=left;verticalAlign=top;spacingLeft=4;spacingRight=4;overflow=hidden;rotatable=0;points=[[0,0.5],[1,0.5]];portConstraint=eastwest;fillColor=#dae8fc;strokeColor=#6c8ebf;" parent="z0o2nLO_LAnplbCTnIAR-116" vertex="1">
          <mxGeometry y="26" width="160" height="26" as="geometry" />
        </mxCell>
        <mxCell id="z0o2nLO_LAnplbCTnIAR-131" value="Radius Next Target" style="text;align=left;verticalAlign=top;spacingLeft=4;spacingRight=4;overflow=hidden;rotatable=0;points=[[0,0.5],[1,0.5]];portConstraint=eastwest;fillColor=#dae8fc;strokeColor=#6c8ebf;" parent="z0o2nLO_LAnplbCTnIAR-116" vertex="1">
          <mxGeometry y="52" width="160" height="26" as="geometry" />
        </mxCell>
        <mxCell id="z0o2nLO_LAnplbCTnIAR-118" value="TargetType&#xa;&#xa;" style="text;align=left;verticalAlign=top;spacingLeft=4;spacingRight=4;overflow=hidden;rotatable=0;points=[[0,0.5],[1,0.5]];portConstraint=eastwest;fillColor=#dae8fc;strokeColor=#6c8ebf;" parent="z0o2nLO_LAnplbCTnIAR-116" vertex="1">
          <mxGeometry y="78" width="160" height="26" as="geometry" />
        </mxCell>
        <mxCell id="z0o2nLO_LAnplbCTnIAR-119" value="Distance&#xa;" style="text;align=left;verticalAlign=top;spacingLeft=4;spacingRight=4;overflow=hidden;rotatable=0;points=[[0,0.5],[1,0.5]];portConstraint=eastwest;fillColor=#dae8fc;strokeColor=#6c8ebf;" parent="z0o2nLO_LAnplbCTnIAR-116" vertex="1">
          <mxGeometry y="104" width="160" height="26" as="geometry" />
        </mxCell>
        <mxCell id="z0o2nLO_LAnplbCTnIAR-120" value="Component (Private)" style="swimlane;fontStyle=2;align=center;verticalAlign=top;childLayout=stackLayout;horizontal=1;startSize=26;horizontalStack=0;resizeParent=1;resizeLast=0;collapsible=1;marginBottom=0;rounded=0;shadow=0;strokeWidth=1;fillColor=#b0e3e6;strokeColor=#0e8088;" parent="z0o2nLO_LAnplbCTnIAR-112" vertex="1">
          <mxGeometry y="234" width="160" height="104" as="geometry">
            <mxRectangle y="208" width="160" height="26" as="alternateBounds" />
          </mxGeometry>
        </mxCell>
        <mxCell id="z0o2nLO_LAnplbCTnIAR-121" value="Camera&#xa;" style="text;align=left;verticalAlign=top;spacingLeft=4;spacingRight=4;overflow=hidden;rotatable=0;points=[[0,0.5],[1,0.5]];portConstraint=eastwest;fillColor=#dae8fc;strokeColor=#6c8ebf;" parent="z0o2nLO_LAnplbCTnIAR-120" vertex="1">
          <mxGeometry y="26" width="160" height="26" as="geometry" />
        </mxCell>
        <mxCell id="z0o2nLO_LAnplbCTnIAR-122" value="Controller&#xa;" style="text;align=left;verticalAlign=top;spacingLeft=4;spacingRight=4;overflow=hidden;rotatable=0;points=[[0,0.5],[1,0.5]];portConstraint=eastwest;fillColor=#dae8fc;strokeColor=#6c8ebf;" parent="z0o2nLO_LAnplbCTnIAR-120" vertex="1">
          <mxGeometry y="52" width="160" height="26" as="geometry" />
        </mxCell>
        <mxCell id="z0o2nLO_LAnplbCTnIAR-123" value="Character" style="text;align=left;verticalAlign=top;spacingLeft=4;spacingRight=4;overflow=hidden;rotatable=0;points=[[0,0.5],[1,0.5]];portConstraint=eastwest;fillColor=#dae8fc;strokeColor=#6c8ebf;" parent="z0o2nLO_LAnplbCTnIAR-120" vertex="1">
          <mxGeometry y="78" width="160" height="26" as="geometry" />
        </mxCell>
        <mxCell id="z0o2nLO_LAnplbCTnIAR-124" value="Functions" style="swimlane;fontStyle=2;align=center;verticalAlign=top;childLayout=stackLayout;horizontal=1;startSize=26;horizontalStack=0;resizeParent=1;resizeLast=0;collapsible=1;marginBottom=0;rounded=0;shadow=0;strokeWidth=1;fillColor=#ffcd28;strokeColor=#d79b00;gradientColor=#ffa500;" parent="z0o2nLO_LAnplbCTnIAR-111" vertex="1">
          <mxGeometry y="364" width="160" height="104" as="geometry">
            <mxRectangle y="338" width="160" height="26" as="alternateBounds" />
          </mxGeometry>
        </mxCell>
        <mxCell id="z0o2nLO_LAnplbCTnIAR-125" value="GetPrivate&#xa;" style="text;align=left;verticalAlign=top;spacingLeft=4;spacingRight=4;overflow=hidden;rotatable=0;points=[[0,0.5],[1,0.5]];portConstraint=eastwest;fillColor=#f5f5f5;strokeColor=#666666;fontColor=#333333;" parent="z0o2nLO_LAnplbCTnIAR-124" vertex="1">
          <mxGeometry y="26" width="160" height="26" as="geometry" />
        </mxCell>
        <mxCell id="z0o2nLO_LAnplbCTnIAR-126" value="SetPrivate&#xa;" style="text;align=left;verticalAlign=top;spacingLeft=4;spacingRight=4;overflow=hidden;rotatable=0;points=[[0,0.5],[1,0.5]];portConstraint=eastwest;fillColor=#f5f5f5;strokeColor=#666666;fontColor=#333333;" parent="z0o2nLO_LAnplbCTnIAR-124" vertex="1">
          <mxGeometry y="52" width="160" height="26" as="geometry" />
        </mxCell>
        <mxCell id="z0o2nLO_LAnplbCTnIAR-127" value="UpdateTarget&#xa;" style="text;align=left;verticalAlign=top;spacingLeft=4;spacingRight=4;overflow=hidden;rotatable=0;points=[[0,0.5],[1,0.5]];portConstraint=eastwest;fillColor=#f5f5f5;strokeColor=#666666;fontColor=#333333;" parent="z0o2nLO_LAnplbCTnIAR-124" vertex="1">
          <mxGeometry y="78" width="160" height="26" as="geometry" />
        </mxCell>
        <mxCell id="z0o2nLO_LAnplbCTnIAR-128" value="EventGraph&#xa;" style="swimlane;fontStyle=2;align=center;verticalAlign=top;childLayout=stackLayout;horizontal=1;startSize=26;horizontalStack=0;resizeParent=1;resizeLast=0;collapsible=1;marginBottom=0;rounded=0;shadow=0;strokeWidth=1;fillColor=#f8cecc;strokeColor=#b85450;gradientColor=#ea6b66;" parent="z0o2nLO_LAnplbCTnIAR-111" vertex="1">
          <mxGeometry y="468" width="160" height="78" as="geometry">
            <mxRectangle y="364" width="160" height="26" as="alternateBounds" />
          </mxGeometry>
        </mxCell>
        <mxCell id="z0o2nLO_LAnplbCTnIAR-129" value="LockOn&#xa;" style="text;align=left;verticalAlign=top;spacingLeft=4;spacingRight=4;overflow=hidden;rotatable=0;points=[[0,0.5],[1,0.5]];portConstraint=eastwest;fillColor=#ffcccc;strokeColor=#36393d;" parent="z0o2nLO_LAnplbCTnIAR-128" vertex="1">
          <mxGeometry y="26" width="160" height="26" as="geometry" />
        </mxCell>
        <mxCell id="z0o2nLO_LAnplbCTnIAR-130" value="LockOff" style="text;align=left;verticalAlign=top;spacingLeft=4;spacingRight=4;overflow=hidden;rotatable=0;points=[[0,0.5],[1,0.5]];portConstraint=eastwest;fillColor=#ffcccc;strokeColor=#36393d;" parent="z0o2nLO_LAnplbCTnIAR-128" vertex="1">
          <mxGeometry y="52" width="160" height="26" as="geometry" />
        </mxCell>
        <mxCell id="ynBMGLqpD1DIFQQp8FUT-197" value="BP_Player&#xa;" style="swimlane;fontStyle=0;align=center;verticalAlign=top;childLayout=stackLayout;horizontal=1;startSize=26;horizontalStack=0;resizeParent=1;resizeLast=0;collapsible=1;marginBottom=0;rounded=0;shadow=0;strokeWidth=1;fillColor=#1ba1e2;strokeColor=#006EAF;fontColor=#ffffff;" parent="WIyWlLk6GJQsqaUBKTNV-1" vertex="1">
          <mxGeometry x="-420" y="390" width="160" height="104" as="geometry">
            <mxRectangle x="280" y="440" width="170" height="26" as="alternateBounds" />
          </mxGeometry>
        </mxCell>
        <mxCell id="ynBMGLqpD1DIFQQp8FUT-198" value="Variables&#xa;" style="swimlane;fontStyle=2;align=center;verticalAlign=top;childLayout=stackLayout;horizontal=1;startSize=26;horizontalStack=0;resizeParent=1;resizeLast=0;collapsible=1;marginBottom=0;rounded=0;shadow=0;strokeWidth=1;fillColor=#dae8fc;strokeColor=#6c8ebf;gradientColor=#7ea6e0;" parent="ynBMGLqpD1DIFQQp8FUT-197" vertex="1" collapsed="1">
          <mxGeometry y="26" width="160" height="26" as="geometry">
            <mxRectangle y="26" width="160" height="78" as="alternateBounds" />
          </mxGeometry>
        </mxCell>
        <mxCell id="ynBMGLqpD1DIFQQp8FUT-199" value="Private&#xa;&#xa;" style="swimlane;fontStyle=2;align=center;verticalAlign=top;childLayout=stackLayout;horizontal=1;startSize=26;horizontalStack=0;resizeParent=1;resizeLast=0;collapsible=1;marginBottom=0;rounded=0;shadow=0;strokeWidth=1;fillColor=#b0e3e6;strokeColor=#0e8088;" parent="ynBMGLqpD1DIFQQp8FUT-198" vertex="1" collapsed="1">
          <mxGeometry y="26" width="160" height="26" as="geometry">
            <mxRectangle y="26" width="160" height="78" as="alternateBounds" />
          </mxGeometry>
        </mxCell>
        <mxCell id="ynBMGLqpD1DIFQQp8FUT-200" value="MoveSpeed" style="text;align=left;verticalAlign=top;spacingLeft=4;spacingRight=4;overflow=hidden;rotatable=0;points=[[0,0.5],[1,0.5]];portConstraint=eastwest;fillColor=#dae8fc;strokeColor=#6c8ebf;" parent="ynBMGLqpD1DIFQQp8FUT-199" vertex="1">
          <mxGeometry y="26" width="160" height="26" as="geometry" />
        </mxCell>
        <mxCell id="ynBMGLqpD1DIFQQp8FUT-201" value="Montage" style="text;align=left;verticalAlign=top;spacingLeft=4;spacingRight=4;overflow=hidden;rotatable=0;points=[[0,0.5],[1,0.5]];portConstraint=eastwest;fillColor=#dae8fc;strokeColor=#6c8ebf;" parent="ynBMGLqpD1DIFQQp8FUT-199" vertex="1">
          <mxGeometry y="52" width="160" height="26" as="geometry" />
        </mxCell>
        <mxCell id="ynBMGLqpD1DIFQQp8FUT-206" value="Component (Private)" style="swimlane;fontStyle=2;align=center;verticalAlign=top;childLayout=stackLayout;horizontal=1;startSize=26;horizontalStack=0;resizeParent=1;resizeLast=0;collapsible=1;marginBottom=0;rounded=0;shadow=0;strokeWidth=1;fillColor=#b0e3e6;strokeColor=#0e8088;" parent="ynBMGLqpD1DIFQQp8FUT-198" vertex="1" collapsed="1">
          <mxGeometry y="52" width="160" height="26" as="geometry">
            <mxRectangle y="104" width="160" height="52" as="alternateBounds" />
          </mxGeometry>
        </mxCell>
        <mxCell id="ynBMGLqpD1DIFQQp8FUT-207" value="AC_All&#xa;" style="text;align=left;verticalAlign=top;spacingLeft=4;spacingRight=4;overflow=hidden;rotatable=0;points=[[0,0.5],[1,0.5]];portConstraint=eastwest;fillColor=#dae8fc;strokeColor=#6c8ebf;" parent="ynBMGLqpD1DIFQQp8FUT-206" vertex="1">
          <mxGeometry y="26" width="160" height="26" as="geometry" />
        </mxCell>
        <mxCell id="ynBMGLqpD1DIFQQp8FUT-210" value="Functions" style="swimlane;fontStyle=2;align=center;verticalAlign=top;childLayout=stackLayout;horizontal=1;startSize=26;horizontalStack=0;resizeParent=1;resizeLast=0;collapsible=1;marginBottom=0;rounded=0;shadow=0;strokeWidth=1;fillColor=#ffcd28;strokeColor=#d79b00;gradientColor=#ffa500;" parent="ynBMGLqpD1DIFQQp8FUT-197" vertex="1" collapsed="1">
          <mxGeometry y="52" width="160" height="26" as="geometry">
            <mxRectangle y="130" width="160" height="156" as="alternateBounds" />
          </mxGeometry>
        </mxCell>
        <mxCell id="ynBMGLqpD1DIFQQp8FUT-211" value="GetPrivate&#xa;" style="text;align=left;verticalAlign=top;spacingLeft=4;spacingRight=4;overflow=hidden;rotatable=0;points=[[0,0.5],[1,0.5]];portConstraint=eastwest;fillColor=#f5f5f5;strokeColor=#666666;fontColor=#333333;" parent="ynBMGLqpD1DIFQQp8FUT-210" vertex="1">
          <mxGeometry y="26" width="160" height="26" as="geometry" />
        </mxCell>
        <mxCell id="ynBMGLqpD1DIFQQp8FUT-212" value="SetPrivate&#xa;" style="text;align=left;verticalAlign=top;spacingLeft=4;spacingRight=4;overflow=hidden;rotatable=0;points=[[0,0.5],[1,0.5]];portConstraint=eastwest;fillColor=#f5f5f5;strokeColor=#666666;fontColor=#333333;" parent="ynBMGLqpD1DIFQQp8FUT-210" vertex="1">
          <mxGeometry y="52" width="160" height="26" as="geometry" />
        </mxCell>
        <mxCell id="ynBMGLqpD1DIFQQp8FUT-223" value="Armor&#xa;" style="text;align=left;verticalAlign=top;spacingLeft=4;spacingRight=4;overflow=hidden;rotatable=0;points=[[0,0.5],[1,0.5]];portConstraint=eastwest;fillColor=#f5f5f5;strokeColor=#666666;fontColor=#333333;" parent="ynBMGLqpD1DIFQQp8FUT-210" vertex="1">
          <mxGeometry y="78" width="160" height="26" as="geometry" />
        </mxCell>
        <mxCell id="ynBMGLqpD1DIFQQp8FUT-222" value="Death&#xa;" style="text;align=left;verticalAlign=top;spacingLeft=4;spacingRight=4;overflow=hidden;rotatable=0;points=[[0,0.5],[1,0.5]];portConstraint=eastwest;fillColor=#f5f5f5;strokeColor=#666666;fontColor=#333333;" parent="ynBMGLqpD1DIFQQp8FUT-210" vertex="1">
          <mxGeometry y="104" width="160" height="26" as="geometry" />
        </mxCell>
        <mxCell id="ynBMGLqpD1DIFQQp8FUT-232" value="Preform&#xa;" style="text;align=left;verticalAlign=top;spacingLeft=4;spacingRight=4;overflow=hidden;rotatable=0;points=[[0,0.5],[1,0.5]];portConstraint=eastwest;fillColor=#f5f5f5;strokeColor=#666666;fontColor=#333333;" parent="ynBMGLqpD1DIFQQp8FUT-210" vertex="1">
          <mxGeometry y="130" width="160" height="26" as="geometry" />
        </mxCell>
        <mxCell id="ynBMGLqpD1DIFQQp8FUT-214" value="EventGraph&#xa;" style="swimlane;fontStyle=2;align=center;verticalAlign=top;childLayout=stackLayout;horizontal=1;startSize=26;horizontalStack=0;resizeParent=1;resizeLast=0;collapsible=1;marginBottom=0;rounded=0;shadow=0;strokeWidth=1;fillColor=#f8cecc;strokeColor=#b85450;gradientColor=#ea6b66;" parent="ynBMGLqpD1DIFQQp8FUT-197" vertex="1" collapsed="1">
          <mxGeometry y="78" width="160" height="26" as="geometry">
            <mxRectangle y="78" width="160" height="208" as="alternateBounds" />
          </mxGeometry>
        </mxCell>
        <mxCell id="ynBMGLqpD1DIFQQp8FUT-215" value="Input&#xa;" style="text;align=left;verticalAlign=top;spacingLeft=4;spacingRight=4;overflow=hidden;rotatable=0;points=[[0,0.5],[1,0.5]];portConstraint=eastwest;fillColor=#ffcccc;strokeColor=#36393d;" parent="ynBMGLqpD1DIFQQp8FUT-214" vertex="1">
          <mxGeometry y="26" width="160" height="26" as="geometry" />
        </mxCell>
        <mxCell id="ynBMGLqpD1DIFQQp8FUT-216" value="AttackEvent&#xa;" style="text;align=left;verticalAlign=top;spacingLeft=4;spacingRight=4;overflow=hidden;rotatable=0;points=[[0,0.5],[1,0.5]];portConstraint=eastwest;fillColor=#ffcccc;strokeColor=#36393d;" parent="ynBMGLqpD1DIFQQp8FUT-214" vertex="1">
          <mxGeometry y="52" width="160" height="26" as="geometry" />
        </mxCell>
        <mxCell id="ynBMGLqpD1DIFQQp8FUT-218" value="DmgEvent&#xa;" style="text;align=left;verticalAlign=top;spacingLeft=4;spacingRight=4;overflow=hidden;rotatable=0;points=[[0,0.5],[1,0.5]];portConstraint=eastwest;fillColor=#ffcccc;strokeColor=#36393d;" parent="ynBMGLqpD1DIFQQp8FUT-214" vertex="1">
          <mxGeometry y="78" width="160" height="26" as="geometry" />
        </mxCell>
        <mxCell id="ynBMGLqpD1DIFQQp8FUT-219" value="MontageHIt" style="text;align=left;verticalAlign=top;spacingLeft=4;spacingRight=4;overflow=hidden;rotatable=0;points=[[0,0.5],[1,0.5]];portConstraint=eastwest;fillColor=#ffcccc;strokeColor=#36393d;" parent="ynBMGLqpD1DIFQQp8FUT-214" vertex="1">
          <mxGeometry y="104" width="160" height="26" as="geometry" />
        </mxCell>
        <mxCell id="ynBMGLqpD1DIFQQp8FUT-220" value="Restart" style="text;align=left;verticalAlign=top;spacingLeft=4;spacingRight=4;overflow=hidden;rotatable=0;points=[[0,0.5],[1,0.5]];portConstraint=eastwest;fillColor=#ffcccc;strokeColor=#36393d;" parent="ynBMGLqpD1DIFQQp8FUT-214" vertex="1">
          <mxGeometry y="130" width="160" height="26" as="geometry" />
        </mxCell>
        <mxCell id="ynBMGLqpD1DIFQQp8FUT-217" value="DeathEvent&#xa;" style="text;align=left;verticalAlign=top;spacingLeft=4;spacingRight=4;overflow=hidden;rotatable=0;points=[[0,0.5],[1,0.5]];portConstraint=eastwest;fillColor=#ffcccc;strokeColor=#36393d;" parent="ynBMGLqpD1DIFQQp8FUT-214" vertex="1">
          <mxGeometry y="156" width="160" height="26" as="geometry" />
        </mxCell>
        <mxCell id="ynBMGLqpD1DIFQQp8FUT-221" value="Stats / Status Switcg GP_T" style="text;align=left;verticalAlign=top;spacingLeft=4;spacingRight=4;overflow=hidden;rotatable=0;points=[[0,0.5],[1,0.5]];portConstraint=eastwest;fillColor=#ffcccc;strokeColor=#36393d;" parent="ynBMGLqpD1DIFQQp8FUT-214" vertex="1">
          <mxGeometry y="182" width="160" height="26" as="geometry" />
        </mxCell>
        <mxCell id="z0o2nLO_LAnplbCTnIAR-144" value="" style="edgeStyle=orthogonalEdgeStyle;rounded=0;orthogonalLoop=1;jettySize=auto;html=1;entryX=0;entryY=0.5;entryDx=0;entryDy=0;" parent="WIyWlLk6GJQsqaUBKTNV-1" target="z0o2nLO_LAnplbCTnIAR-143" edge="1">
          <mxGeometry relative="1" as="geometry">
            <mxPoint x="-580" y="1585.0000000000002" as="sourcePoint" />
            <mxPoint x="-450" y="1585" as="targetPoint" />
          </mxGeometry>
        </mxCell>
        <mxCell id="z0o2nLO_LAnplbCTnIAR-143" value="Target Valid?" style="rhombus;whiteSpace=wrap;html=1;fillColor=#f5f5f5;fontColor=#333333;strokeColor=#666666;" parent="WIyWlLk6GJQsqaUBKTNV-1" vertex="1">
          <mxGeometry x="-560" y="1545" width="80" height="80" as="geometry" />
        </mxCell>
        <mxCell id="z0o2nLO_LAnplbCTnIAR-145" style="edgeStyle=orthogonalEdgeStyle;rounded=0;orthogonalLoop=1;jettySize=auto;html=1;" parent="WIyWlLk6GJQsqaUBKTNV-1" target="z0o2nLO_LAnplbCTnIAR-148" edge="1">
          <mxGeometry relative="1" as="geometry">
            <mxPoint x="-470" y="1775.0476190476188" as="sourcePoint" />
          </mxGeometry>
        </mxCell>
        <mxCell id="z0o2nLO_LAnplbCTnIAR-161" style="edgeStyle=orthogonalEdgeStyle;rounded=0;orthogonalLoop=1;jettySize=auto;html=1;entryX=0;entryY=0.5;entryDx=0;entryDy=0;" parent="WIyWlLk6GJQsqaUBKTNV-1" source="z0o2nLO_LAnplbCTnIAR-146" target="z0o2nLO_LAnplbCTnIAR-159" edge="1">
          <mxGeometry relative="1" as="geometry" />
        </mxCell>
        <mxCell id="z0o2nLO_LAnplbCTnIAR-146" value="Find Next&lt;br style=&quot;border-color: var(--border-color);&quot;&gt;TargetLockOn" style="rounded=0;whiteSpace=wrap;html=1;fillColor=#ffe6cc;strokeColor=#d79b00;" parent="WIyWlLk6GJQsqaUBKTNV-1" vertex="1">
          <mxGeometry x="-700" y="1745" width="100" height="60" as="geometry" />
        </mxCell>
        <mxCell id="z0o2nLO_LAnplbCTnIAR-147" style="edgeStyle=orthogonalEdgeStyle;rounded=0;orthogonalLoop=1;jettySize=auto;html=1;entryX=0;entryY=0.5;entryDx=0;entryDy=0;" parent="WIyWlLk6GJQsqaUBKTNV-1" source="z0o2nLO_LAnplbCTnIAR-148" target="z0o2nLO_LAnplbCTnIAR-151" edge="1">
          <mxGeometry relative="1" as="geometry" />
        </mxCell>
        <mxCell id="z0o2nLO_LAnplbCTnIAR-148" value="Find Next&lt;br style=&quot;border-color: var(--border-color);&quot;&gt;Target" style="rounded=1;whiteSpace=wrap;html=1;fillColor=#dae8fc;strokeColor=#6c8ebf;" parent="WIyWlLk6GJQsqaUBKTNV-1" vertex="1">
          <mxGeometry x="-437" y="1745" width="110" height="60" as="geometry" />
        </mxCell>
        <mxCell id="z0o2nLO_LAnplbCTnIAR-149" style="edgeStyle=orthogonalEdgeStyle;rounded=0;orthogonalLoop=1;jettySize=auto;html=1;exitX=1;exitY=0.5;exitDx=0;exitDy=0;" parent="WIyWlLk6GJQsqaUBKTNV-1" source="z0o2nLO_LAnplbCTnIAR-151" edge="1">
          <mxGeometry relative="1" as="geometry">
            <mxPoint x="-150" y="1825" as="targetPoint" />
            <mxPoint x="-240" y="1795" as="sourcePoint" />
            <Array as="points">
              <mxPoint x="-220" y="1775" />
              <mxPoint x="-220" y="1826" />
              <mxPoint x="-170" y="1826" />
            </Array>
          </mxGeometry>
        </mxCell>
        <mxCell id="z0o2nLO_LAnplbCTnIAR-150" style="edgeStyle=orthogonalEdgeStyle;rounded=0;orthogonalLoop=1;jettySize=auto;html=1;" parent="WIyWlLk6GJQsqaUBKTNV-1" source="z0o2nLO_LAnplbCTnIAR-151" edge="1">
          <mxGeometry relative="1" as="geometry">
            <mxPoint x="-180" y="1735" as="targetPoint" />
            <Array as="points">
              <mxPoint x="-220" y="1775" />
              <mxPoint x="-220" y="1735" />
              <mxPoint x="-180" y="1735" />
            </Array>
          </mxGeometry>
        </mxCell>
        <mxCell id="z0o2nLO_LAnplbCTnIAR-151" value="Target Find?&lt;br&gt;" style="rhombus;whiteSpace=wrap;html=1;fillColor=#f5f5f5;fontColor=#333333;strokeColor=#666666;" parent="WIyWlLk6GJQsqaUBKTNV-1" vertex="1">
          <mxGeometry x="-307" y="1735" width="80" height="80" as="geometry" />
        </mxCell>
        <mxCell id="z0o2nLO_LAnplbCTnIAR-152" style="edgeStyle=orthogonalEdgeStyle;rounded=0;orthogonalLoop=1;jettySize=auto;html=1;" parent="WIyWlLk6GJQsqaUBKTNV-1" source="z0o2nLO_LAnplbCTnIAR-153" target="z0o2nLO_LAnplbCTnIAR-155" edge="1">
          <mxGeometry relative="1" as="geometry" />
        </mxCell>
        <mxCell id="z0o2nLO_LAnplbCTnIAR-153" value="Set Target&lt;br&gt;" style="rounded=1;whiteSpace=wrap;html=1;" parent="WIyWlLk6GJQsqaUBKTNV-1" vertex="1">
          <mxGeometry x="-180" y="1705" width="110" height="60" as="geometry" />
        </mxCell>
        <mxCell id="z0o2nLO_LAnplbCTnIAR-154" style="edgeStyle=orthogonalEdgeStyle;rounded=0;orthogonalLoop=1;jettySize=auto;html=1;entryX=0;entryY=0.5;entryDx=0;entryDy=0;" parent="WIyWlLk6GJQsqaUBKTNV-1" source="z0o2nLO_LAnplbCTnIAR-155" target="z0o2nLO_LAnplbCTnIAR-156" edge="1">
          <mxGeometry relative="1" as="geometry" />
        </mxCell>
        <mxCell id="z0o2nLO_LAnplbCTnIAR-155" value="Set is Targeting" style="rounded=1;whiteSpace=wrap;html=1;" parent="WIyWlLk6GJQsqaUBKTNV-1" vertex="1">
          <mxGeometry x="-50" y="1705" width="110" height="60" as="geometry" />
        </mxCell>
        <mxCell id="z0o2nLO_LAnplbCTnIAR-156" value="UpDate Rotation" style="rounded=1;whiteSpace=wrap;html=1;fillColor=#e1d5e7;strokeColor=#9673a6;" parent="WIyWlLk6GJQsqaUBKTNV-1" vertex="1">
          <mxGeometry x="80" y="1705" width="90" height="60" as="geometry" />
        </mxCell>
        <mxCell id="z0o2nLO_LAnplbCTnIAR-157" value="False" style="shape=hexagon;perimeter=hexagonPerimeter2;whiteSpace=wrap;html=1;fixedSize=1;fillColor=#FF9999;strokeColor=#36393d;" parent="WIyWlLk6GJQsqaUBKTNV-1" vertex="1">
          <mxGeometry x="-150" y="1795" width="70" height="60" as="geometry" />
        </mxCell>
        <mxCell id="z0o2nLO_LAnplbCTnIAR-159" value="Is Target&lt;br&gt;&amp;nbsp;Restart" style="rounded=1;whiteSpace=wrap;html=1;" parent="WIyWlLk6GJQsqaUBKTNV-1" vertex="1">
          <mxGeometry x="-560" y="1745" width="90" height="60" as="geometry" />
        </mxCell>
      </root>
    </mxGraphModel>
  </diagram>
</mxfile>
